<svg version="1.1" xmlns="http://www.w3.org/2000/svg" width="4479px" height="1080px" transform="rotate(0) scale(1, 1)">
<path d="M0 0 C0.99 0 1.98 0 3 0 C1.89487484 6.72176124 0.48262769 13.24063614 -1.4140625 19.78515625 C-2.08525066 21.94040779 -2.08525066 21.94040779 -2 24 C-2.66 24 -3.32 24 -4 24 C-4.03738281 24.556875 -4.07476563 25.11375 -4.11328125 25.6875 C-4.59541917 31.28408136 -5.89689244 35.82695345 -8 41 C-9.64831983 45.53896938 -11.04933947 50.01241075 -12 54.75 C-12.75789954 58.38917054 -14.05848388 60.81591356 -16 64 C-16.48050493 65.43530902 -16.92067455 66.88431853 -17.3359375 68.33984375 C-19.1747569 74.63809937 -21.17934081 80.87900757 -23.1875 87.125 C-23.55552734 88.27226562 -23.92355469 89.41953125 -24.30273438 90.6015625 C-25.20098708 93.40131118 -26.10009176 96.2007831 -27 99 C-23.62161903 95.82761787 -22.18042546 93.52496427 -21 89 C-21 88.34 -21 87.68 -21 87 C-20.34 87 -19.68 87 -19 87 C-19 85.02 -19 83.04 -19 81 C-18.34 81 -17.68 81 -17 81 C-17.061875 80.2575 -17.12375 79.515 -17.1875 78.75 C-16.9631595 75.45967264 -15.9513873 74.57583124 -14 72 C-13.27954633 68.84881675 -13.27954633 68.84881675 -13 66 C-12.34 66 -11.68 66 -11 66 C-10.11064623 62.696686 -9.53725895 59.37705625 -9 56 C-8.34 56 -7.68 56 -7 56 C-6.76216797 55.10861328 -6.76216797 55.10861328 -6.51953125 54.19921875 C-4.8609463 48.30711863 -2.71085726 42.87589635 -0.0859375 37.34765625 C1.08493842 34.93063495 1.08493842 34.93063495 2 32 C2.66 32 3.32 32 4 32 C4.33 29.69 4.66 27.38 5 25 C5.66 25 6.32 25 7 25 C7.68707555 22.50935112 8 20.62113708 8 18 C8.66 18 9.32 18 10 18 C10.33 15.69 10.66 13.38 11 11 C11.66 11 12.32 11 13 11 C13 9.68 13 8.36 13 7 C13.66 7 14.32 7 15 7 C15 6.01 15 5.02 15 4 C15.99 4 16.98 4 18 4 C17.55253332 9.01162684 16.72971643 13.03111054 14.8203125 17.73046875 C13.83003899 20.47022546 13.17067835 23.22800149 12.5 26.0625 C11.69255532 29.43178487 10.87410965 32.59523408 9.4375 35.75 C8.07316615 38.83458087 7.28161196 41.66314525 6.5234375 44.92578125 C5.99465533 47.02117927 5.33689062 49.02251236 4.625 51.0625 C1.85344314 59.16506163 -0.42585572 67.5831469 -2 76 C-2.66 76 -3.32 76 -4 76 C-3.938125 77.051875 -3.938125 77.051875 -3.875 78.125 C-4.01668332 81.38371628 -4.86734686 83.9559947 -6 87 C-6.66 87 -7.32 87 -8 87 C-8.06058594 87.556875 -8.12117188 88.11375 -8.18359375 88.6875 C-8.74470565 93.79793457 -9.35090852 98.89999553 -10 104 C-7.49942296 101.49942296 -7.29094262 99.73848516 -6.5 96.3125 C-6.24089844 95.22839844 -5.98179687 94.14429688 -5.71484375 93.02734375 C-5.47894531 92.02832031 -5.24304688 91.02929688 -5 90 C-3.69093071 84.9382654 -1.93659779 80.2351329 0.09765625 75.4296875 C1.013478 72.96370858 1.55324649 70.58840691 2 68 C2.66 68 3.32 68 4 68 C3.9071875 66.6696875 3.9071875 66.6696875 3.8125 65.3125 C4.02362295 61.58266118 5.01812661 60.09172248 7 57 C7.70670728 54.30745009 7.70670728 54.30745009 8 52 C8.66 52 9.32 52 10 52 C10.12246094 51.28457031 10.24492188 50.56914062 10.37109375 49.83203125 C11.01135375 46.94887287 11.93551556 44.41407527 13.0625 41.6875 C13.42472656 40.80449219 13.78695313 39.92148437 14.16015625 39.01171875 C14.43730469 38.34785156 14.71445312 37.68398438 15 37 C15.66 37 16.32 37 17 37 C16.938125 36.113125 16.87625 35.22625 16.8125 34.3125 C17.02427747 30.57109805 17.95208091 29.07187864 20 26 C20.69822617 24.34630643 21.37498605 22.68272986 22 21 C22.66 21 23.32 21 24 21 C24.12375 20.0925 24.2475 19.185 24.375 18.25 C24.92109677 15.41029677 25.57263803 13.47409409 27 11 C27.99 11 28.98 11 30 11 C28.80391942 18.65658723 26.95631987 25.8442341 24.5 33.1875 C20.67417429 43.38226182 20.67417429 43.38226182 19 54 C18.34 54 17.68 54 17 54 C17.061875 55.299375 17.061875 55.299375 17.125 56.625 C16.9950958 60.13241342 16.19211394 62.72168667 15 66 C15 66.66 15 67.32 15 68 C14.34 68 13.68 68 13 68 C13.03738281 68.72703125 13.07476563 69.4540625 13.11328125 70.203125 C12.99282461 73.17715782 12.37105516 75.037132 11.1875 77.75 C8.56325361 83.99421748 6.08341507 90.28282654 5 97 C4.34 97 3.68 97 3 97 C2.67 100.63 2.34 104.26 2 108 C2.99 108.33 3.98 108.66 5 109 C6.98901256 105.28141129 8.19796391 102.11043495 9 98 C9.515625 96.80375 10.03125 95.6075 10.5625 94.375 C12.19593103 91.15138512 12.19593103 91.15138512 12 88 C12.66 88 13.32 88 14 88 C13.79375 87.4225 13.5875 86.845 13.375 86.25 C12.89830691 83.38984145 13.60129272 82.50294987 15 80 C16.49096155 76.09186923 16.49096155 76.09186923 17 72 C17.66 72 18.32 72 19 72 C19 71.01 19 70.02 19 69 C19.66 69 20.32 69 21 69 C20.938125 67.63875 20.938125 67.63875 20.875 66.25 C20.99989713 63.00267468 21.4141033 61.73126654 23 59 C23.433125 57.9171875 23.433125 57.9171875 23.875 56.8125 C25.18073672 53.54815821 26.61808096 50.35295253 28.0546875 47.14453125 C28.77695777 45.50599249 29.45996346 43.85009136 30.125 42.1875 C31 40 31 40 32 38.0625 C33.10068524 35.92304865 33.10068524 35.92304865 33.875 33.1875 C34.9250087 30.21247536 36.23906882 27.6525955 37.84765625 24.9453125 C39.19277485 22.67456991 40.47228854 20.37179154 41.75 18.0625 C42.17796875 17.29035156 42.6059375 16.51820313 43.046875 15.72265625 C43.36140625 15.15417969 43.6759375 14.58570313 44 14 C44.66 14 45.32 14 46 14 C44.62306554 22.45000673 42.63318283 30.66634015 40.4375 38.9375 C39.81117706 41.3216091 39.18487409 43.70572346 38.55859375 46.08984375 C38.28329834 47.13003662 38.00800293 48.17022949 37.72436523 49.24194336 C37.29132132 50.89077957 36.86711082 52.5420337 36.46118164 54.19775391 C36.06795988 55.73442041 35.57497106 57.24498059 35.0625 58.74609375 C33.62048364 63.16226886 32.57373196 67.64879171 31.5 72.16601562 C30.80526966 75.02363691 30.0869761 77.78289688 28.9921875 80.515625 C27.67193708 83.82144888 26.92807169 87.22959181 26.125 90.6875 C24.77908023 96.30756383 23.19262471 101.59184179 20.83203125 106.88671875 C19.90797704 109.23372969 19.43015113 111.51902734 19 114 C18.34 114 17.68 114 17 114 C17.061875 115.1446875 17.061875 115.1446875 17.125 116.3125 C17 119 17 119 15 122 C15 122.99 15 123.98 15 125 C14.34 125 13.68 125 13 125 C13 126.32 13 127.64 13 129 C12.34 129 11.68 129 11 129 C10.855625 129.763125 10.71125 130.52625 10.5625 131.3125 C9.49869429 136.39512726 7.73610092 138.44180865 4 142 C3.443125 142.598125 2.88625 143.19625 2.3125 143.8125 C1 145 1 145 -1 145 C-1 145.66 -1 146.32 -1 147 C-7.35264193 151.94706823 -15.79883333 156 -24 156 C-24.28101563 156.86753906 -24.56203125 157.73507812 -24.8515625 158.62890625 C-25.92628384 161.78361549 -27.1265875 164.84827545 -28.375 167.9375 C-34.65846901 183.33561899 -34.65846901 183.33561899 -34.265625 199.37109375 C-33.93046875 200.05300781 -33.5953125 200.73492187 -33.25 201.4375 C-32.88261719 202.20835937 -32.51523437 202.97921875 -32.13671875 203.7734375 C-31.44867369 205.12115462 -30.7467636 206.46208075 -30.01953125 207.7890625 C-27.18693712 213.03803285 -25.49512234 218.48169568 -23.83813477 224.18969727 C-22.60172667 228.37818903 -21.07844488 232.13228517 -19 236 C-17.87159372 233.93930083 -16.74721229 231.87656904 -15.625 229.8125 C-14.99851562 228.66394531 -14.37203125 227.51539063 -13.7265625 226.33203125 C-11.98934119 223.12977134 -11.98934119 223.12977134 -10.8984375 220.13671875 C-10 218 -10 218 -8 217 C-6.82673229 215.1029714 -6.82673229 215.1029714 -5.8125 212.8125 C-5.44769531 212.05582031 -5.08289063 211.29914063 -4.70703125 210.51953125 C-3.81060928 207.32509936 -4.35792711 205.24603518 -5 202 C-5.69806371 190.83098059 -4.72737984 181.62439289 -1 171 C-0.66613281 169.97132813 -0.33226562 168.94265625 0.01171875 167.8828125 C0.87506328 165.36443992 1.83224315 162.98163649 2.9375 160.5625 C4.12287913 157.94858705 5.27429089 155.33920831 6.375 152.6875 C9.37944994 145.63859821 12.71304462 138.36053706 17 132 C17.66 132 18.32 132 19 132 C19.0825 131.34 19.165 130.68 19.25 130 C20.23277322 126.06890713 21.71827298 122.36751436 24 119 C25.485 118.505 25.485 118.505 27 118 C27.37718189 116.67840146 27.70210597 115.34169595 28 114 C28.92393747 112.3838158 29.91209611 110.80378849 30.9375 109.25 C33.15229344 105.85489483 35.34926804 102.45439429 37.4765625 99.00390625 C45.52266291 85.95436126 45.52266291 85.95436126 49.84375 80.578125 C51.14005118 78.80884907 52.0692081 76.98224201 53 75 C53.66 75 54.32 75 55 75 C55.40025391 74.13568359 55.40025391 74.13568359 55.80859375 73.25390625 C57.42724929 70.19172839 59.52676294 67.61994256 61.66015625 64.90234375 C63.18085277 62.9370042 63.18085277 62.9370042 64 60 C64.763125 59.401875 65.52625 58.80375 66.3125 58.1875 C69.324883 55.73556035 70.87168152 53.23977369 73 50 C79.52730619 41.46619741 86.97169422 33.77177793 94.5 26.125 C95.3655249 25.23353271 96.2310498 24.34206543 97.12280273 23.42358398 C104.05517661 16.47165107 111.59105205 10.23506154 121 7 C124.14765417 7.14988829 125.47035146 7.42706287 127.625 9.7578125 C130.00543546 13.63954533 129.50097802 17.59007502 129 22 C128.25699101 24.91964432 127.30005909 27.24987501 126 30 C125.34 30.33 124.68 30.66 124 31 C122.87775145 32.88013106 122.87775145 32.88013106 121.875 35.0625 C121.52179687 35.79597656 121.16859375 36.52945313 120.8046875 37.28515625 C120.53914062 37.85105469 120.27359375 38.41695313 120 39 C119.34 39 118.68 39 118 39 C117.71125 39.9075 117.4225 40.815 117.125 41.75 C116.23468224 44.32202908 115.28505587 46.61346766 114 49 C113.34 49 112.68 49 112 49 C111.71125 49.9075 111.4225 50.815 111.125 51.75 C110.23468224 54.32202908 109.28505587 56.61346766 108 59 C107.34 59 106.68 59 106 59 C105.71125 59.721875 105.4225 60.44375 105.125 61.1875 C103.5625 65.09375 103.5625 65.09375 102 69 C101.34 69 100.68 69 100 69 C99.81824219 69.62648438 99.63648438 70.25296875 99.44921875 70.8984375 C99.07216797 72.12433594 99.07216797 72.12433594 98.6875 73.375 C98.44386719 74.18710937 98.20023438 74.99921875 97.94921875 75.8359375 C97 78 97 78 94 80 C92.78581167 81.9466071 92.78581167 81.9466071 91.8125 84.125 C91.46832031 84.84945312 91.12414062 85.57390625 90.76953125 86.3203125 C90.51558594 86.87460937 90.26164063 87.42890625 90 88 C89.34 88 88.68 88 88 88 C87.80664062 88.62648438 87.61328125 89.25296875 87.4140625 89.8984375 C87.02347656 91.12433594 87.02347656 91.12433594 86.625 92.375 C86.36976563 93.18710937 86.11453125 93.99921875 85.8515625 94.8359375 C85 97 85 97 83 99 C81.28496739 101.67545087 80.0080929 103.9757213 79 107 C78.34 107 77.68 107 77 107 C76.87625 107.7425 76.7525 108.485 76.625 109.25 C76.04513299 111.80141485 75.26291261 113.7267573 74 116 C73.34 116 72.68 116 72 116 C71.77054688 116.65226562 71.54109375 117.30453125 71.3046875 117.9765625 C69.57437376 121.98633146 67.36832612 125.63394303 65.125 129.375 C64.25219312 130.84090117 63.37979267 132.30704442 62.5078125 133.7734375 C61.87794434 134.83062988 61.87794434 134.83062988 61.23535156 135.90917969 C59.45615936 138.92044491 57.72576251 141.95784189 56 145 C55.34 145 54.68 145 54 145 C53.85111328 146.06154297 53.85111328 146.06154297 53.69921875 147.14453125 C52.89186758 150.44159105 51.56784664 152.7851719 49.8125 155.6875 C49.18085937 156.74324219 48.54921875 157.79898438 47.8984375 158.88671875 C46.73975988 160.78685468 45.57886376 162.68564299 44.4140625 164.58203125 C41.78210281 168.89203931 39.35067783 173.21465649 37.125 177.75 C34.03971142 184.03276946 30.58288271 190.07672189 27.07958984 196.13183594 C21.80090832 205.26627081 16.68407872 214.4354437 12.03271484 223.90722656 C9.15155256 229.76161023 6.09639195 235.51563775 2.96875 241.24194336 C1.42386886 244.1097679 0.07129488 246.7813821 -0.94140625 249.88671875 C-2.48224061 254.41825006 -4.78946777 258.48544467 -7.0625 262.6875 C-7.9720813 264.37781587 -8.87972044 266.06917868 -9.78515625 267.76171875 C-10.18613525 268.50381592 -10.58711426 269.24591309 -11.00024414 270.01049805 C-12.51300823 273.02088011 -13.15589749 275.73833653 -13.46484375 279.0546875 C-13.58182617 280.22451172 -13.58182617 280.22451172 -13.70117188 281.41796875 C-13.85794389 283.04787942 -14.01162155 284.67809086 -14.16210938 286.30859375 C-14.24138672 287.09105469 -14.32066406 287.87351562 -14.40234375 288.6796875 C-14.46929443 289.38851074 -14.53624512 290.09733398 -14.60522461 290.82763672 C-15 293 -15 293 -17 298 C-24.92 298 -32.84 298 -41 298 C-41.06058594 296.05738281 -41.12117188 294.11476563 -41.18359375 292.11328125 C-41.24629404 290.18350565 -41.30901676 288.25373071 -41.37231445 286.32397461 C-41.43575206 284.36643735 -41.49623818 282.40880514 -41.55664062 280.45117188 C-42.28264174 258.50359984 -46.33663577 239.48575918 -54 219 C-54.38929688 217.93910156 -54.77859375 216.87820313 -55.1796875 215.78515625 C-59.4092685 204.91950851 -65.54509433 194.4904556 -73.00390625 185.515625 C-74 184 -74 184 -74 181 C-74.99 180.67 -75.98 180.34 -77 180 C-78.03013277 178.35178756 -79.03114628 176.68496298 -80 175 C-80.66 174.67 -81.32 174.34 -82 174 C-82.4434375 173.25234375 -82.886875 172.5046875 -83.34375 171.734375 C-90.25193833 160.3293471 -103.14917985 152.0450079 -113.6875 144.1875 C-114.29295654 143.73125244 -114.89841309 143.27500488 -115.5222168 142.80493164 C-119.80987358 139.65352424 -124.18870182 137.27568569 -129 135 C-129 135.66 -129 136.32 -129 137 C-128.43796875 137.24492187 -127.8759375 137.48984375 -127.296875 137.7421875 C-115.46556423 144.22123863 -102.90614288 158.39767996 -96 170 C-96 170.66 -96 171.32 -96 172 C-95.34 172 -94.68 172 -94 172 C-94 172.99 -94 173.98 -94 175 C-93.34 175 -92.68 175 -92 175 C-91.62875 175.763125 -91.2575 176.52625 -90.875 177.3125 C-89.89222086 179.30091361 -88.86607813 181.22904395 -87.74609375 183.14453125 C-79.53161141 197.35760015 -74.08488462 213.14790832 -70 229 C-69.70351563 230.14339844 -69.40703125 231.28679687 -69.1015625 232.46484375 C-64.035847 253.95651791 -64.17706449 276.12477388 -66 298 C-165.66 298 -265.32 298 -368 298 C-368.33 297.34 -368.66 296.68 -369 296 C-369.66902344 296.15597656 -370.33804688 296.31195312 -371.02734375 296.47265625 C-391.78753958 300.68042749 -410.84031949 295.09635023 -429 285 C-430.02351563 284.443125 -431.04703125 283.88625 -432.1015625 283.3125 C-443.54155397 276.60963176 -450.95250397 267.15268209 -456 255 C-456.474375 253.865625 -456.94875 252.73125 -457.4375 251.5625 C-459.57875384 238.00122568 -455.30185832 227.49532137 -448.03515625 216.40625 C-445.96091016 213.95378245 -445.13602798 213.2806289 -442 213 C-443.07875298 215.77765864 -444.22624083 218.49148869 -445.47265625 221.19921875 C-450.78110159 232.84649562 -452.46945547 242.0232405 -448.18359375 254.34765625 C-441.55284172 270.52225221 -428.3518049 278.7454977 -412.86425781 285.29882812 C-408.70561969 286.8629466 -404.4026076 287.55150151 -400 288 C-401.11117187 287.56429688 -402.22234375 287.12859375 -403.3671875 286.6796875 C-422.38625069 279.11613835 -435.65499654 270.44702205 -444.375 251.125 C-448.35189233 240.16260983 -447.51570569 229.66996744 -443 219 C-440.96196099 215.67711032 -438.60905493 212.88309133 -436 210 C-435.50371094 209.31808594 -435.00742187 208.63617188 -434.49609375 207.93359375 C-431.93753195 204.48267252 -430.60371602 203.17695125 -426.375 201.9375 C-411.13693141 201.35810576 -397.12280248 208.08917503 -384 215 C-384 215.66 -384 216.32 -384 217 C-383.21625 217.185625 -382.4325 217.37125 -381.625 217.5625 C-373.76354603 220.67997313 -367.26066328 226.4198436 -361 232 C-360.34 229.69 -359.68 227.38 -359 225 C-359.66 224.95875 -360.32 224.9175 -361 224.875 C-364.7601871 223.77827876 -367.11580677 221.81677895 -370.1328125 219.375 C-372.05775029 217.80969136 -372.05775029 217.80969136 -375 217 C-376.6484375 215.29296875 -376.6484375 215.29296875 -378.375 213.1875 C-380.47158676 210.69558226 -382.29189719 208.77155872 -384.875 206.75 C-387.18033109 204.85149204 -387.6869518 203.9217832 -388 201 C-388.66 201 -389.32 201 -390 201 C-390.29132813 200.40574219 -390.58265625 199.81148437 -390.8828125 199.19921875 C-391.75636282 197.43288902 -392.64011203 195.67158461 -393.53125 193.9140625 C-394.47271819 192.04614955 -395.39162975 190.16659279 -396.28125 188.2734375 C-402.53169981 175.66351842 -413.35461128 165.64856059 -426.76953125 161.05078125 C-428.44313832 160.57655076 -430.12134636 160.11811397 -431.8046875 159.6796875 C-435.92808205 158.40304933 -438.95886716 156.04113284 -442 153 C-442 151.68 -442 150.36 -442 149 C-442.66 149 -443.32 149 -444 149 C-444 147.68 -444 146.36 -444 145 C-449.68178575 142.57128035 -454.16545753 143.35695329 -459.99023438 144.54296875 C-465.79486061 145.51133401 -468.34506722 144.19230071 -473 141 C-473 137.04 -473 133.08 -473 129 C-471.576875 128.566875 -471.576875 128.566875 -470.125 128.125 C-466.84129617 126.38477699 -466.84129617 126.38477699 -466.3671875 123.71484375 C-466.24601563 122.83957031 -466.12484375 121.96429688 -466 121.0625 C-465.30319969 116.28941789 -465.30319969 116.28941789 -462.25 113.375 C-456.80023502 111.0693302 -456.80023502 111.0693302 -453 112 C-448.08466408 116.23811186 -443.8148855 122.14970801 -441 128 C-441 128.99 -441 129.98 -441 131 C-439.865625 130.95359375 -438.73125 130.9071875 -437.5625 130.859375 C-422.45535714 130.42745536 -422.45535714 130.42745536 -416 135 C-415.67 135.66 -415.34 136.32 -415 137 C-413.36816893 138.05589069 -411.69207001 139.0436126 -410 140 C-408.94087402 140.67788574 -407.88174805 141.35577148 -406.79052734 142.05419922 C-403.0262905 144.1971268 -399.82928631 144.58734315 -395.4765625 144.7578125 C-394.77755829 144.79089508 -394.07855408 144.82397766 -393.35836792 144.85806274 C-391.8766988 144.92668461 -390.3946487 144.98747679 -388.91235352 145.04089355 C-385.82832271 145.15429398 -382.74717486 145.31321558 -379.6651001 145.47009277 C-377.42696459 145.58369642 -375.18861408 145.69194875 -372.95019531 145.79980469 C-357.79025264 146.56810833 -343.38980221 149.08374015 -329.78515625 156.1328125 C-325.60290396 158.30119936 -325.60290396 158.30119936 -321 159 C-318.36379026 157.50199249 -318.36379026 157.50199249 -315.875 155.1875 C-314.91335938 154.35863281 -313.95171875 153.52976562 -312.9609375 152.67578125 C-310.11389203 150.10292354 -307.30619643 147.49224051 -304.5 144.875 C-300.11265142 140.83237167 -295.59497823 137.60446557 -290.49609375 134.5234375 C-288.34071981 133.20795106 -286.33195721 131.82365845 -284.3125 130.3125 C-281.42374176 128.21406241 -278.46364445 126.60663796 -275.23828125 125.08203125 C-273.69148119 124.33427625 -272.16839805 123.53614162 -270.66796875 122.69921875 C-252.21659088 112.67658158 -229.80447454 106.59027737 -208.96484375 104.43359375 C-205.22409855 104.25676953 -205.22409855 104.25676953 -203 103 C-203.515625 102.05125 -204.03125 101.1025 -204.5625 100.125 C-206.59653515 95.35954623 -206.23008903 90.96248246 -205 86 C-202.52919547 81.6989699 -199.74042121 79.4652211 -195 78 C-189.39427248 78.33799239 -183.32980897 79.21141715 -179 83 C-175.6483746 87.62293159 -175.64727717 92.00310152 -175.6015625 97.51171875 C-176.05776494 100.36074771 -176.7744156 101.23955097 -179 103 C-173.8046016 104.06155977 -168.60453876 105.0735996 -163.38500977 106.01025391 C-139.82273948 110.28597743 -139.82273948 110.28597743 -130.046875 115.08203125 C-127.84757919 116.06835666 -125.70824842 116.65143791 -123.375 117.25 C-112.10655615 120.53879314 -102.18723608 127.35644103 -92.5625 133.875 C-91.29128296 134.73230713 -91.29128296 134.73230713 -89.99438477 135.60693359 C-89.21377686 136.14656738 -88.43316895 136.68620117 -87.62890625 137.2421875 C-86.92838135 137.7254248 -86.22785645 138.20866211 -85.50610352 138.70654297 C-85.00908936 139.13338379 -84.5120752 139.56022461 -84 140 C-84 140.66 -84 141.32 -84 142 C-83.195625 142.37125 -83.195625 142.37125 -82.375 142.75 C-79.4176018 144.30652537 -76.70275949 146.03435673 -74 148 C-74 148.66 -74 149.32 -74 150 C-73.13375 150.37125 -73.13375 150.37125 -72.25 150.75 C-69.67060021 152.18299988 -67.93878408 153.78424676 -66 156 C-66 156.66 -66 157.32 -66 158 C-65.43796875 158.2371875 -64.8759375 158.474375 -64.296875 158.71875 C-61.48105958 160.28947697 -59.52044584 162.21471464 -57.25 164.5 C-56.45078125 165.2940625 -55.6515625 166.088125 -54.828125 166.90625 C-53 169 -53 169 -53 171 C-52.34 171 -51.68 171 -51 171 C-49.78125 172.71484375 -49.78125 172.71484375 -48.5 174.9375 C-46.81545121 178.05432026 -46.81545121 178.05432026 -44 180 C-43.87882812 179.18015625 -43.75765625 178.3603125 -43.6328125 177.515625 C-43.46523438 176.43796875 -43.29765625 175.3603125 -43.125 174.25 C-42.96257812 173.18265625 -42.80015625 172.1153125 -42.6328125 171.015625 C-42.06255843 168.29811795 -41.25862525 166.43263703 -40 164 C-40 163.01 -40 162.02 -40 161 C-39.34 161 -38.68 161 -38 161 C-36.73115733 153.26209181 -36.73115733 153.26209181 -39.75 146.375 C-46.73786977 135.05894612 -48.99287256 125.30449224 -48 112 C-47.20662599 108.79266336 -46.19713236 105.8132045 -45.015625 102.73046875 C-43.80506255 99.47591816 -43.11418352 96.24812806 -42.4921875 92.83984375 C-42 91 -42 91 -40 88 C-39.31190312 86.00727144 -38.64736307 84.00633135 -38 82 C-37.22711808 80.07568174 -36.43502659 78.15897987 -35.625 76.25 C-34.01429161 72.43342411 -32.44409262 68.60878267 -30.9375 64.75 C-29.47621133 61.06450085 -27.81057876 57.56482386 -25.98828125 54.046875 C-24.9136854 51.82122983 -24.05356055 49.56440862 -23.1875 47.25 C-21.7021072 43.44440062 -19.92738576 40.05644721 -17.8125 36.5625 C-14.62035752 31.24226253 -11.85424458 25.78890346 -9.1875 20.1875 C-8.80247314 19.38707275 -8.41744629 18.58664551 -8.02075195 17.76196289 C-5.8894597 13.23184625 -4.22526972 8.85569851 -3 4 C-2.34 4 -1.68 4 -1 4 C-0.67 2.68 -0.34 1.36 0 0 Z M-135 131 C-134.67 131.66 -134.34 132.32 -134 133 C-133.34 132.67 -132.68 132.34 -132 132 C-132.99 131.67 -133.98 131.34 -135 131 Z M-370 155 C-370 155.33 -370 155.66 -370 156 C-368.35 156 -366.7 156 -365 156 C-365 155.67 -365 155.34 -365 155 C-366.65 155 -368.3 155 -370 155 Z M-364 156 C-361.00943664 157.99370891 -359.5686746 158.38797746 -356.125 158.9375 C-352.12083465 159.67449855 -349.41168812 160.72554126 -346 163 C-344.01548229 163.71143088 -342.01797888 164.38991336 -340 165 C-340 165.66 -340 166.32 -340 167 C-338.05385473 168.59348861 -338.05385473 168.59348861 -335.625 170.125 C-334.81289063 170.66382813 -334.00078125 171.20265625 -333.1640625 171.7578125 C-331.12677974 173.1659413 -331.12677974 173.1659413 -329 173 C-326.68407978 169.77885843 -326.68407978 169.77885843 -326 166 C-338.37473556 160.06468005 -350.00397084 155.69690128 -364 156 Z M-393 237 C-392 239 -392 239 -392 239 Z M-392 239 C-391.7525 239.9590625 -391.7525 239.9590625 -391.5 240.9375 C-391.07702867 243.5281994 -390.77017315 246.00761342 -390.625 248.625 C-390.55152344 249.75808594 -390.55152344 249.75808594 -390.4765625 250.9140625 C-391 253 -391 253 -392.84765625 254.73046875 C-397.4566325 256.58662399 -401.88508034 256.57167751 -406.8125 256.6875 C-408.28106445 256.73874023 -408.28106445 256.73874023 -409.77929688 256.79101562 C-412.18608345 256.87319858 -414.59251945 256.94244433 -417 257 C-417 257.33 -417 257.66 -417 258 C-403.61930041 259.79567287 -403.61930041 259.79567287 -390.1796875 259.15625 C-387.16086774 258.93984715 -384.83244007 260.01480345 -382 261 C-378.96122984 260.88931632 -375.99856827 260.49309789 -373 260 C-373.70867564 258.05491154 -374.44281826 256.11908986 -375.1875 254.1875 C-375.59355469 253.10855469 -375.99960937 252.02960938 -376.41796875 250.91796875 C-378.21982515 247.59454472 -379.58865518 246.53510517 -383 245 C-385.70953551 244.74803871 -385.70953551 244.74803871 -388 245 C-388.28875 244.195625 -388.5775 243.39125 -388.875 242.5625 C-389.73262568 239.8673532 -389.73262568 239.8673532 -392 239 Z M-340 263 C-340 263.99 -340 264.98 -340 266 C-336.7 266 -333.4 266 -330 266 C-330 270.95 -330 275.9 -330 281 C-329.01 281 -328.02 281 -327 281 C-327 276.05 -327 271.1 -327 266 C-323.7 266 -320.4 266 -317 266 C-317.33 265.01 -317.66 264.02 -318 263 C-325.26 263 -332.52 263 -340 263 Z M-323 273 C-323 275.64 -323 278.28 -323 281 C-322.34 281 -321.68 281 -321 281 C-321 278.36 -321 275.72 -321 273 C-321.66 273 -322.32 273 -323 273 Z M-390 290 C-390 290.33 -390 290.66 -390 291 C-386.7 291 -383.4 291 -380 291 C-380 290.67 -380 290.34 -380 290 C-383.3 290 -386.6 290 -390 290 Z " fill="#000000" transform="translate(664,301)"/>
<path d="M0 0 C0.68214321 -0.0072672 1.36428643 -0.01453441 2.06710064 -0.02202183 C4.36408091 -0.04034085 6.65940571 -0.02288671 8.95637512 -0.00571251 C10.61515503 -0.01147104 12.27392858 -0.01941034 13.93268871 -0.02934873 C18.4995342 -0.05028246 23.0658594 -0.03987744 27.63270712 -0.02441764 C32.55440446 -0.01313464 37.47601045 -0.03055164 42.39768982 -0.04431725 C52.04264921 -0.06658687 61.68741439 -0.06173189 71.33238149 -0.04725404 C79.16884411 -0.03597643 87.00525218 -0.03442449 94.84172058 -0.03987312 C96.51271813 -0.04102237 96.51271813 -0.04102237 98.21747321 -0.04219484 C100.48031816 -0.04379341 102.74316311 -0.04541448 105.00600803 -0.04705779 C126.24032663 -0.06132621 147.47453742 -0.04490543 168.70883834 -0.01805596 C186.94122557 0.00428379 205.17345365 0.00040396 223.40583801 -0.02264977 C244.5625448 -0.04938847 265.71915702 -0.05995281 286.87587833 -0.04458845 C289.13054465 -0.04299565 291.38521098 -0.0414238 293.63987732 -0.03987312 C294.74930685 -0.03910175 295.85873638 -0.03833037 297.00178498 -0.03753562 C304.83167261 -0.03321283 312.66150042 -0.04051763 320.49137878 -0.05227089 C330.02936312 -0.066273 339.56714164 -0.0625442 349.1051023 -0.03586717 C353.97448163 -0.02269813 358.84351741 -0.017629 363.71289444 -0.03411293 C368.1665366 -0.04896183 372.61951531 -0.04090861 377.07309687 -0.01422517 C378.68810512 -0.0086186 380.30316889 -0.01152913 381.91814172 -0.02360411 C384.10676747 -0.03871877 386.29309411 -0.0233152 388.4815979 0 C390.30783802 0.00121764 390.30783802 0.00121764 392.17097187 0.00245988 C395.24079895 0.6292057 395.24079895 0.6292057 397.62784863 3.03742754 C400.11761119 7.0381163 399.90574821 8.9745609 399.24079895 13.6292057 C396.71028553 16.21882986 395.04867586 17.49101271 391.45474529 18.10577965 C390.43432046 18.09471813 389.41389563 18.08365662 388.36254883 18.0722599 C387.18610809 18.06934441 386.00966736 18.06642891 384.7975769 18.06342506 C383.51580063 18.03969322 382.23402435 18.01596138 380.91340637 17.99151039 C379.54324097 17.98051405 378.1730603 17.97129742 376.8028717 17.96372414 C373.09012963 17.93817056 369.37809388 17.8877558 365.66568542 17.83285236 C361.78340925 17.77967248 357.90095594 17.7493885 354.01846313 17.71666908 C346.66958354 17.65126104 339.32109458 17.56528184 331.97252303 17.47189927 C323.60512157 17.36657242 315.23754333 17.28419666 306.8698715 17.2037425 C289.65985672 17.03775634 272.45028525 16.84296801 255.24079895 16.6292057 C255.24079895 17.6192057 255.24079895 18.6092057 255.24079895 19.6292057 C249.87331598 26.94642515 240.54190728 29.87860033 232.44050598 33.08379555 C230.10748035 34.00749925 227.78518712 34.95485955 225.4634552 35.90654945 C223.97052894 36.51080769 222.47705714 37.11372021 220.98298645 37.7151432 C220.2953421 37.99425545 219.60769775 38.27336769 218.8992157 38.56093788 C215.02729774 40.08514472 211.36998594 41.10754828 207.24079895 41.6292057 C207.57079895 42.6192057 207.90079895 43.6092057 208.24079895 44.6292057 C208.77737122 44.38396156 209.31394348 44.13871742 209.86677551 43.88604164 C215.50393328 41.34093419 221.20056113 39.05047579 226.99079895 36.8792057 C232.67823492 34.74290693 238.35612148 32.59506333 243.9947052 30.3323307 C244.92637512 29.96333656 245.85804504 29.59434242 246.81794739 29.21416664 C248.59499143 28.50931269 250.36807558 27.79436177 252.13630676 27.06768227 C257.9881873 24.76815026 263.28694354 23.27222048 269.48298645 25.39873695 C272.45489336 27.29706027 274.26048646 28.65873697 276.24079895 31.6292057 C276.24079895 32.6192057 276.24079895 33.6092057 276.24079895 34.6292057 C268.62110827 38.51664902 260.88936104 42.12417857 253.11579895 45.6917057 C243.71995536 50.02565201 234.37844773 54.45298812 225.11579895 59.0667057 C224.16430969 59.53793861 223.21282043 60.00917152 222.23249817 60.49468422 C213.46580071 64.89671531 205.12933184 69.90923041 196.99079895 75.3792057 C196.04055847 76.01644569 196.04055847 76.01644569 195.07112122 76.66655922 C181.15897233 86.04435252 167.46589521 95.86805545 154.96736145 107.0901432 C153.23994612 108.62996592 151.46421495 110.09548856 149.67829895 111.5667057 C146.51311963 114.27461307 143.82477783 117.2470478 141.1353302 120.42217445 C139.00324909 122.90593905 136.77875733 125.29141589 134.55329895 127.6917057 C131.11277449 131.48330409 128.63469928 135.12867308 126.24079895 139.6292057 C125.58079895 139.9592057 124.92079895 140.2892057 124.24079895 140.6292057 C123.74579895 141.4748307 123.25079895 142.3204557 122.74079895 143.1917057 C121.99829895 144.3982682 121.99829895 144.3982682 121.24079895 145.6292057 C120.58079895 145.6292057 119.92079895 145.6292057 119.24079895 145.6292057 C118.91079895 147.2792057 118.58079895 148.9292057 118.24079895 150.6292057 C115.55691689 151.67026755 114.37921322 151.67450794 111.59944153 150.76470375 C110.62128479 150.31135658 109.64312805 149.85800941 108.6353302 149.39092445 C107.56992004 148.90043617 106.50450989 148.40994789 105.40681458 147.90459633 C104.30015442 147.38059242 103.19349426 146.85658852 102.05329895 146.3167057 C100.93503723 145.80430336 99.81677551 145.29190102 98.66462708 144.76397133 C90.37886101 140.90532981 90.37886101 140.90532981 89.24079895 138.6292057 C85.91252416 137.31400034 82.53812932 136.18591485 79.14704895 135.0432682 C76.24079895 133.6292057 76.24079895 133.6292057 75.0025177 131.8401432 C75.39665052 128.18310758 78.05551441 126.11162872 80.55329895 123.6292057 C85.07470069 119.119676 85.07470069 119.119676 88.24079895 113.6292057 C88.75642395 112.8248307 89.27204895 112.0204557 89.80329895 111.1917057 C92.06622527 107.15779356 92.37987998 103.26100065 92.36579895 98.6917057 C92.36193176 97.25504555 92.36193176 97.25504555 92.35798645 95.78936195 C92.23137305 92.37502053 91.85617833 89.02574258 91.49079895 85.6292057 C90.67090446 73.96147646 96.37114396 65.13596711 101.79866028 55.17730141 C102.44097595 53.99527138 102.44097595 53.99527138 103.0962677 52.78936195 C103.48451721 52.08432533 103.87276672 51.37928871 104.27278137 50.65288734 C106.32973421 46.35274055 106.84140914 42.35901093 106.24079895 37.6292057 C103.00143056 31.35644032 98.69524605 25.69862882 94.3072052 20.18779945 C93.24079895 18.6292057 93.24079895 18.6292057 93.24079895 16.6292057 C91.98212509 16.63808815 90.72345123 16.6469706 89.42663574 16.65612221 C77.5811235 16.73710993 65.73566721 16.79712397 53.88994122 16.83645439 C47.79950129 16.85735415 41.70928435 16.88571573 35.61897278 16.93096352 C29.74456393 16.97433553 23.87036994 16.9983248 17.99581337 17.00871468 C15.7514336 17.01612156 13.50706595 17.03058495 11.26277733 17.05212593 C8.12587689 17.08104449 4.98987117 17.08516648 1.8528595 17.08330727 C0.91922073 17.09768837 -0.01441803 17.11206947 -0.97634888 17.12688637 C-7.23628892 17.08657825 -7.23628892 17.08657825 -9.83261108 14.81566811 C-11.21959976 11.54280879 -11.19090055 9.14447303 -10.75920105 5.6292057 C-7.78584473 0.65784907 -5.6836898 0.00378959 0 0 Z M115.24079895 16.6292057 C117.22079895 18.9392057 119.20079895 21.2492057 121.24079895 23.6292057 C125.06115009 29.78421588 127.39321508 34.68589237 127.74079895 41.9417057 C128.20959233 49.09484606 128.83211928 55.69444461 133.24079895 61.6292057 C137.46852768 65.32846834 140.9184993 65.75095086 146.42829895 65.6917057 C147.51497864 65.68268227 148.60165833 65.67365883 149.7212677 65.66436195 C150.96843567 65.64695961 150.96843567 65.64695961 152.24079895 65.6292057 C151.25079895 65.1342057 151.25079895 65.1342057 150.24079895 64.6292057 C151.08767395 62.9354557 151.93460929 61.24173584 152.78181458 59.54815102 C153.50811562 58.09489459 154.23336602 56.64111263 154.95759583 55.18682289 C156.6506653 51.7901959 158.35144889 48.39976869 160.10798645 45.0354557 C160.64681458 43.9938932 161.1856427 42.9523307 161.74079895 41.8792057 C162.4678302 40.49475258 162.4678302 40.49475258 163.20954895 39.0823307 C164.49915358 36.45814668 164.49915358 36.45814668 164.24079895 32.6292057 C164.90079895 32.2992057 165.56079895 31.9692057 166.24079895 31.6292057 C167.30460418 29.45844244 167.30460418 29.45844244 168.24079895 26.8792057 C168.57079895 26.01811195 168.90079895 25.1570182 169.24079895 24.2698307 C169.57079895 23.39842445 169.90079895 22.5270182 170.24079895 21.6292057 C170.90079895 19.9792057 171.56079895 18.3292057 172.24079895 16.6292057 C153.43079895 16.6292057 134.62079895 16.6292057 115.24079895 16.6292057 Z M222.24079895 16.6292057 C218.40422906 22.81205514 218.40422906 22.81205514 217.24079895 26.6292057 C216.25079895 26.9592057 215.26079895 27.2892057 214.24079895 27.6292057 C214.24079895 28.9492057 214.24079895 30.2692057 214.24079895 31.6292057 C213.25079895 31.9592057 212.26079895 32.2892057 211.24079895 32.6292057 C210.01559631 35.63767989 210.01559631 35.63767989 209.24079895 38.6292057 C213.56342734 37.21931616 216.11033637 35.1430547 219.36579895 32.0042057 C225.55008733 26.22214746 232.19724081 21.32491113 239.24079895 16.6292057 C233.63079895 16.6292057 228.02079895 16.6292057 222.24079895 16.6292057 Z M201.24079895 45.6292057 C200.58079895 46.2892057 199.92079895 46.9492057 199.24079895 47.6292057 C201.22079895 47.2992057 203.20079895 46.9692057 205.24079895 46.6292057 C203.34900692 45.94772341 203.34900692 45.94772341 201.24079895 45.6292057 Z M189.24079895 50.6292057 C192.86406634 51.8369615 193.88226264 51.17231698 197.24079895 49.6292057 C193.61753156 48.42144991 192.59933526 49.08609443 189.24079895 50.6292057 Z M183.05329895 53.0667057 C182.12517395 53.5823307 181.19704895 54.0979557 180.24079895 54.6292057 C183.31321948 56.03016816 183.31321948 56.03016816 186.42829895 54.1917057 C187.35642395 53.6760807 188.28454895 53.1604557 189.24079895 52.6292057 C186.16837842 51.22824325 186.16837842 51.22824325 183.05329895 53.0667057 Z M168.24079895 59.6292057 C172.71963591 59.18216584 172.71963591 59.18216584 176.24079895 56.6292057 C171.97253022 56.6292057 171.30197463 57.00534083 168.24079895 59.6292057 Z M160.55329895 61.0667057 C159.74505676 61.35416664 158.93681458 61.64162758 158.1040802 61.93779945 C157.48919739 62.16596352 156.87431458 62.39412758 156.24079895 62.6292057 C156.24079895 62.9592057 156.24079895 63.2892057 156.24079895 63.6292057 C160.55854475 63.12123561 164.27382009 62.43237791 168.24079895 60.6292057 C164.76208274 59.46963363 163.8986025 59.8546392 160.55329895 61.0667057 Z " fill="#000000" transform="translate(278.7592010498047,606.3707942962646)"/>
<path d="M0 0 C40.18212512 -0.1209091 40.18212512 -0.1209091 57.04882812 -0.14648438 C68.68469215 -0.16426995 80.32049089 -0.18515364 91.95629883 -0.22631836 C100.43142901 -0.25628697 108.90650612 -0.27559069 117.38168782 -0.28226548 C121.8662687 -0.28616513 126.3506978 -0.29528453 130.83522987 -0.31719017 C135.06313656 -0.33767339 139.29083007 -0.34381007 143.51878166 -0.33932304 C145.0638406 -0.34014298 146.60890726 -0.34603779 148.15392303 -0.35761642 C163.08621684 -0.46395746 175.36531271 1.888768 186.75 12.125 C196.21822937 22.264735 198.471624 35.11539467 198.25390625 48.46875 C197.63772317 57.03843473 195.18223368 64.54986713 191 72 C190.32771738 73.33051054 189.65962142 74.66316725 189 76 C189.58910156 76.26039063 190.17820312 76.52078125 190.78515625 76.7890625 C198.67862992 81.1047183 202.36052794 89.819818 205 98 C207.7902812 111.06840562 206.87411434 125.48557974 200.3125 137.25 C193.24333043 148.07086644 184.48474193 153.87116002 172 157 C169.5473979 157.17013979 167.08692701 157.2441007 164.62843323 157.24050903 C163.92008125 157.24221788 163.21172927 157.24392673 162.48191208 157.24568737 C160.12658918 157.24896144 157.77155608 157.2380133 155.41625977 157.22705078 C153.72066759 157.22648622 152.02507492 157.22680411 150.32948303 157.22793579 C145.73909176 157.22850853 141.14880546 157.21676688 136.55843854 157.20278788 C131.75648868 157.19026748 126.9545363 157.18910898 122.15257263 157.18673706 C113.06504539 157.18052614 103.97756639 157.16412057 94.89006037 157.14403808 C82.60610621 157.11748225 70.32213882 157.1067033 58.03816319 157.09503365 C38.69207267 157.07623971 19.34608395 157.03639142 0 157 C0 105.19 0 53.38 0 0 Z M23 23 C23 37.52 23 52.04 23 67 C40.55950721 67.11303807 58.11870203 67.20507152 75.67847252 67.25906086 C83.83249346 67.2847997 91.98627164 67.31986697 100.14013672 67.37719727 C107.25030392 67.42716526 114.36029523 67.4593224 121.47063315 67.47044247 C125.2326617 67.47693875 128.99418722 67.49211501 132.75605392 67.52865028 C136.30366384 67.56282253 139.85056799 67.57301094 143.39832687 67.56553841 C145.30733031 67.56754999 147.21625849 67.59433354 149.12506104 67.62210083 C156.69025941 67.57720029 162.78135861 66.55466155 169 62 C174.63604805 55.24593605 175.67555549 48.61333255 175 40 C173.8930982 33.81241892 170.85859251 30.42979369 166.1328125 26.4453125 C161.91680018 23.58830781 158.29442456 22.7501488 153.23564148 22.75949097 C152.08444321 22.75674164 150.93324493 22.75399231 149.74716187 22.75115967 C147.86657578 22.7619455 147.86657578 22.7619455 145.94799805 22.77294922 C144.60737619 22.77351369 143.26675371 22.77319608 141.9261322 22.77206421 C138.29425831 22.77149108 134.66251689 22.78323884 131.03067374 22.79721212 C127.23235482 22.80972619 123.43403277 22.81089052 119.63569641 22.81326294 C112.44639232 22.81947572 105.25714915 22.8358838 98.06787187 22.85596192 C89.88170501 22.8783272 81.69553522 22.88931593 73.50934541 22.89935279 C56.67285567 22.92025022 39.83644983 22.95692392 23 23 Z M23 90 C23 104.85 23 119.7 23 135 C41.22868339 135.06779564 59.45726425 135.12302752 77.68604183 135.15543652 C86.15052247 135.17088646 94.61491904 135.19194006 103.0793457 135.22631836 C110.45941668 135.25627818 117.83942676 135.27558861 125.21955687 135.28226548 C129.12504942 135.28616662 133.03036779 135.29529551 136.93580437 135.31719017 C140.61707645 135.33765953 144.29810375 135.34381288 147.97942734 135.33932304 C149.96370833 135.34053276 151.9479631 135.35661994 153.93217468 135.3732605 C162.07534881 135.3452464 168.81739451 134.60251008 175.8125 130.25 C181.90128703 123.98724762 183.38656464 117.31225444 183.2734375 108.81640625 C182.60490565 101.93052816 179.11982722 97.58980603 173.9765625 93.2265625 C169.48942694 90.44205545 165.05362579 89.75034512 159.84963989 89.75949097 C158.63816788 89.75674164 157.42669586 89.75399231 156.17851257 89.75115967 C154.86292862 89.75835022 153.54734467 89.76554077 152.19189453 89.77294922 C150.78216052 89.77351382 149.37242593 89.77319583 147.96269226 89.77206421 C144.14700168 89.77149158 140.33143744 89.78323124 136.51577616 89.79721212 C132.52394156 89.80973454 128.5321039 89.81089117 124.54025269 89.81326294 C116.98619882 89.81947327 109.432203 89.83587803 101.87817466 89.85596192 C93.27603082 89.87833484 84.67388416 89.88931785 76.07171845 89.89935279 C58.38110606 89.92024466 40.69057322 89.95691531 23 90 Z " fill="#000000" transform="translate(1892,401)"/>
<path d="M0 0 C61.71 0 123.42 0 187 0 C187 7.59 187 15.18 187 23 C132.88 23 78.76 23 23 23 C23 37.52 23 52.04 23 67 C64.25 67 105.5 67 148 67 C148 74.59 148 82.18 148 90 C106.75 90 65.5 90 23 90 C23 104.85 23 119.7 23 135 C77.12 135 131.24 135 187 135 C187 142.26 187 149.52 187 157 C125.29 157 63.58 157 0 157 C0 105.19 0 53.38 0 0 Z " fill="#000000" transform="translate(2611,401)"/>
<path d="M0 0 C26.03158391 0 26.03158391 0 34.24438477 7.75463867 C34.72190186 8.3035376 35.19941895 8.85243652 35.69140625 9.41796875 C38.77560751 12.81520422 42.07720748 15.72515285 45.625 18.625 C46.69152471 19.52175073 47.75663951 20.42018107 48.8203125 21.3203125 C49.60583496 21.98208496 49.60583496 21.98208496 50.40722656 22.65722656 C53.10814812 24.93421439 55.80377244 27.21745794 58.5 29.5 C59.58330865 30.41669584 60.66664196 31.33336253 61.75 32.25 C120.25 81.75 120.25 81.75 121.87548828 83.12548828 C122.95709521 84.04064413 124.03880069 84.9556835 125.12060547 85.87060547 C127.85617939 88.18443478 130.58992474 90.50036471 133.3203125 92.8203125 C138.30314347 97.05079624 143.29702715 101.2585368 148.375 105.375 C153.610852 109.63297964 158.70662842 114.04229925 163.78662109 118.48388672 C164.39070801 119.01127441 164.99479492 119.53866211 165.6171875 120.08203125 C166.41552002 120.78162964 166.41552002 120.78162964 167.22998047 121.49536133 C169.44600353 123.37913376 171.72884514 125.18307611 174 127 C174.495 64.135 174.495 64.135 175 0 C182.59 0 190.18 0 198 0 C198 51.81 198 103.62 198 157 C174 157 174 157 166.6875 152.0625 C163.73046875 149.00390625 163.73046875 149.00390625 162.35302734 147.45751953 C160.27145415 145.21518969 157.90156464 143.38767777 155.5 141.5 C150.8954642 137.75212202 146.35980809 133.93016556 141.8359375 130.0859375 C138.4194046 127.18755177 134.97495162 124.328449 131.5 121.5 C126.8954642 117.75212202 122.35980809 113.93016556 117.8359375 110.0859375 C114.4194046 107.18755177 110.97495162 104.328449 107.5 101.5 C102.8954642 97.75212202 98.35980809 93.93016556 93.8359375 90.0859375 C90.4194046 87.18755177 86.97495162 84.328449 83.5 81.5 C76.69586214 75.95807902 70.02024122 70.26691077 63.33398438 64.58398438 C56.88508785 59.10507464 50.40448945 53.67633943 43.83984375 48.3359375 C39.99436798 45.17280888 36.19992545 41.95092861 32.4140625 38.71679688 C29.66532309 36.37591282 26.89221187 34.1691589 24 32 C23.67 73.25 23.34 114.5 23 157 C15.41 157 7.82 157 0 157 C0 105.19 0 53.38 0 0 Z " fill="#000000" transform="translate(3607,401)"/>
<path d="M0 0 C1.56290355 -0.10692543 3.12871827 -0.17579299 4.69482422 -0.21337891 C5.94922806 -0.25756454 5.94922806 -0.25756454 7.22897339 -0.30264282 C8.99879548 -0.35049255 10.76914646 -0.38137195 12.53955078 -0.39648438 C15.22834847 -0.43960203 17.89391546 -0.59951771 20.57763672 -0.76416016 C32.64557123 -1.14639509 32.64557123 -1.14639509 36.83837891 2.37411499 C39.98748805 6.1446737 42.08783562 10.40961587 44.13250732 14.85095215 C45.55782244 17.84540301 47.32009466 20.58756934 49.10888672 23.37646484 C50.3648245 25.4163805 51.62002314 27.4567514 52.87451172 29.49755859 C53.89738281 31.16044922 53.89738281 31.16044922 54.94091797 32.85693359 C59.93034129 40.97277855 64.88805076 49.10765162 69.83447266 57.24975586 C74.23873707 64.49413595 78.67640134 71.71753084 83.12451172 78.93505859 C88.14863294 87.08722464 93.15257688 95.25095854 98.12451172 103.43505859 C103.18462864 111.76189758 108.26916102 120.07337042 113.37451172 128.37255859 C114.04611328 129.46431396 114.71771484 130.55606934 115.40966797 131.6809082 C119.69565704 138.63877188 124.00542294 145.58118263 128.38330078 152.48168945 C131.12451172 156.82793575 131.12451172 156.82793575 131.12451172 157.93505859 C126.75065373 158.19716748 122.37881363 158.35650746 117.99951172 158.49755859 C116.14326172 158.61067383 116.14326172 158.61067383 114.24951172 158.72607422 C113.05068359 158.75507812 111.85185547 158.78408203 110.61669922 158.81396484 C109.51696777 158.86109619 108.41723633 158.90822754 107.28417969 158.95678711 C102.32495862 157.35314469 100.64483502 153.32814856 98.12451172 148.93505859 C97.32181554 147.15625351 96.54321281 145.36638634 95.78865051 143.56663513 C92.69686622 136.65425614 89.43473619 129.70972784 82.0970726 126.68855667 C73.60235382 124.75312973 64.93077462 124.83488229 56.26515174 124.94956517 C53.22813314 124.97738932 50.19331068 124.93928272 47.15650588 124.90177149 C39.98082182 124.81415574 32.81100795 124.8332542 25.63549805 124.92260742 C18.27294613 125.01262243 10.92652989 124.93187113 3.56568879 124.76466662 C-2.79181499 124.62582999 -9.1443486 124.58983173 -15.50320596 124.63468069 C-19.28538106 124.66068146 -23.05796603 124.65130516 -26.8389225 124.54420662 C-42.91487873 123.78322497 -42.91487873 123.78322497 -56.72219467 130.57908249 C-61.86657149 136.70325174 -65.40166994 143.84571707 -68.56622601 151.14624691 C-69.78813905 153.74899919 -70.94142177 155.81208578 -72.87548828 157.93505859 C-75.69458008 158.38916016 -75.69458008 158.38916016 -79.07470703 158.32568359 C-80.28320312 158.31279297 -81.49169922 158.29990234 -82.73681641 158.28662109 C-84.63077148 158.23634766 -84.63077148 158.23634766 -86.56298828 158.18505859 C-87.83722656 158.16701172 -89.11146484 158.14896484 -90.42431641 158.13037109 C-93.57545669 158.083163 -96.72509969 158.01732243 -99.87548828 157.93505859 C-96.13434342 150.9325934 -92.22164488 144.09561245 -88.00048828 137.37255859 C-86.85557607 135.53555639 -85.71106351 133.69830506 -84.56689453 131.86083984 C-83.9676416 130.90000488 -83.36838867 129.93916992 -82.75097656 128.94921875 C-79.46223401 123.66377023 -76.19996721 118.36205256 -72.93798828 113.06005859 C-72.26203613 111.96169678 -71.58608398 110.86333496 -70.88964844 109.73168945 C-65.95660006 101.70914403 -61.05460044 93.66809407 -56.16479492 85.61914062 C-51.08998425 77.27185554 -45.96864952 68.95359659 -40.84301758 60.63745117 C-36.43427181 53.48010547 -32.05179409 46.30737973 -27.68798828 39.12255859 C-23.0696531 31.52212475 -18.42723798 23.93720621 -13.75048828 16.37255859 C-12.95155151 15.07838013 -12.95155151 15.07838013 -12.13647461 13.75805664 C-11.635271 12.94892822 -11.13406738 12.1397998 -10.61767578 11.30615234 C-10.18310059 10.60417725 -9.74852539 9.90220215 -9.30078125 9.17895508 C-8.83043457 8.43846924 -8.36008789 7.6979834 -7.87548828 6.93505859 C-7.33569336 5.87859131 -6.79589844 4.82212402 -6.23974609 3.73364258 C-3.87548828 0.93505859 -3.87548828 0.93505859 0 0 Z M4.62329102 30.29589844 C4.12869385 31.16682129 3.63409668 32.03774414 3.12451172 32.93505859 C2.07598872 34.637777 1.02382316 36.33825703 -0.03173828 38.03662109 C-1.14820112 39.87662781 -2.26270167 41.71782627 -3.37548828 43.56005859 C-3.98078369 44.55787354 -4.5860791 45.55568848 -5.2097168 46.58374023 C-7.09999462 49.69982717 -8.98793264 52.81732211 -10.87548828 55.93505859 C-13.18574365 59.74892482 -15.49806455 63.56152407 -17.81298828 67.37255859 C-18.65917725 68.76619629 -18.65917725 68.76619629 -19.52246094 70.18798828 C-24.68651383 78.67002159 -29.95278657 87.08685589 -35.25415039 95.48364258 C-36.16112671 96.92525757 -36.16112671 96.92525757 -37.08642578 98.39599609 C-37.6257373 99.24983887 -38.16504883 100.10368164 -38.72070312 100.98339844 C-39.96035991 102.70054545 -39.96035991 102.70054545 -39.87548828 103.93505859 C-3.24548828 103.93505859 33.38451172 103.93505859 71.12451172 103.93505859 C64.31471673 92.017077 64.31471673 92.017077 57.18701172 80.31005859 C51.87157753 71.78641715 46.63930176 63.21544371 41.43701172 54.62255859 C36.70310442 46.8079525 31.96301625 38.99803387 27.12451172 31.24755859 C26.51990112 30.27725708 26.51990112 30.27725708 25.90307617 29.28735352 C24.21148176 26.46052618 24.21148176 26.46052618 22.12451172 23.93505859 C19.28275092 23.46248216 19.28275092 23.46248216 15.93701172 23.31005859 C14.24511719 23.16697266 14.24511719 23.16697266 12.51904297 23.02099609 C7.94190516 24.25350501 6.98319831 26.33666692 4.62329102 30.29589844 Z " fill="#000000" transform="translate(1600.87548828125,400.06494140625)"/>
<path d="M0 0 C1.93361641 -0.00043808 1.93361641 -0.00043808 3.90629578 -0.00088501 C7.40559017 -0.00145366 10.90474457 0.01022066 14.40400672 0.02426291 C18.0741654 0.0368525 21.74432806 0.0379472 25.414505 0.04031372 C32.34861567 0.04650449 39.28266251 0.06288243 46.2167452 0.0830127 C54.11768738 0.10544694 62.01863278 0.11638397 69.91959894 0.12640357 C86.15778199 0.14725107 102.39589689 0.18278754 118.6340332 0.22705078 C118.6340332 7.81705078 118.6340332 15.40705078 118.6340332 23.22705078 C116.23769119 23.23251923 116.23769119 23.23251923 113.79293823 23.23809814 C98.6983991 23.27512441 83.6040951 23.33274646 68.50971794 23.41095352 C60.7505347 23.45063441 52.99145127 23.48308215 45.23217773 23.49804688 C38.46318894 23.51112056 31.69442077 23.53822937 24.9255563 23.58166385 C21.34688089 23.60415137 17.76847629 23.6199692 14.18972397 23.61893463 C10.17850308 23.61803959 6.1680708 23.64850269 2.15698242 23.68115234 C0.99172028 23.67612198 -0.17354187 23.67109161 -1.37411499 23.66590881 C-13.89874 23.82245813 -25.10529017 26.97414207 -35.3659668 34.22705078 C-36.4178418 34.96955078 -37.4697168 35.71205078 -38.5534668 36.47705078 C-50.31060508 47.97291932 -55.24663683 62.89990563 -55.6784668 79.03955078 C-55.38871459 93.80081622 -51.39863248 108.29596421 -41.0534668 119.22705078 C-27.23032022 131.79142853 -11.11976126 134.34052416 6.92504883 134.43237305 C8.13565979 134.44227264 9.34627075 134.45217224 10.59356689 134.46237183 C13.89049647 134.48842248 17.18742155 134.51034037 20.48439217 134.53037381 C23.93839143 134.55235427 27.39234842 134.57968353 30.84631348 134.60643005 C37.3767282 134.65619486 43.9071666 134.7011933 50.43762732 134.74445242 C57.87663512 134.79396403 65.31560048 134.84883018 72.75456715 134.90413201 C88.04768343 135.01770293 103.34083947 135.1244055 118.6340332 135.22705078 C118.6340332 142.48705078 118.6340332 149.74705078 118.6340332 157.22705078 C101.45623594 157.32003053 84.27854067 157.39122429 67.10054874 157.43429947 C59.12277164 157.45484023 51.1451547 157.48279632 43.16748047 157.52880859 C36.20630364 157.56893862 29.24524292 157.59454509 22.28395361 157.60340476 C18.60505525 157.60857575 14.92648877 157.62054708 11.24769783 157.64997101 C-15.81783545 157.85776012 -38.41586057 155.73284745 -58.7331543 135.91845703 C-74.36802476 119.46762532 -80.02060843 98.35899203 -79.6159668 76.02783203 C-78.03627314 52.01155185 -70.36667662 32.9657083 -52.4284668 16.47705078 C-37.31659115 3.82939061 -19.26702884 -0.11595784 0 0 Z " fill="#000000" transform="translate(4055.365966796875,400.77294921875)"/>
<path d="M0 0 C61.71 0 123.42 0 187 0 C187 7.59 187 15.18 187 23 C160.27 23 133.54 23 106 23 C106 67.22 106 111.44 106 157 C97.75 157 89.5 157 81 157 C81 112.78 81 68.56 81 23 C54.27 23 27.54 23 0 23 C0 15.41 0 7.82 0 0 Z " fill="#000000" transform="translate(1199,401)"/>
<path d="M0 0 C4.24960507 -0.27445286 8.49438145 -0.47258394 12.75024414 -0.60424805 C14.19321575 -0.65917084 15.63558618 -0.73395409 17.07641602 -0.82983398 C29.00263394 -1.60286787 29.00263394 -1.60286787 33.78369141 2.23388672 C36.07894458 5.05125066 38.04722289 7.93791942 40 11 C41.10684099 12.34691593 42.23948468 13.67339746 43.40625 14.96875 C43.91736328 15.55333984 44.42847656 16.13792969 44.95507812 16.74023438 C45.46490234 17.32095703 45.97472656 17.90167969 46.5 18.5 C50.97707472 23.63073801 55.34012727 28.83192193 59.625 34.125 C62.52495875 37.63547639 65.50758138 41.06832727 68.5 44.5 C72.96505007 49.62047026 77.32207647 54.80603862 81.59375 60.08984375 C85.22681416 64.48372816 88.98372263 68.76912529 92.74804688 73.05078125 C93.28494141 73.664375 93.82183594 74.27796875 94.375 74.91015625 C94.85710938 75.45808838 95.33921875 76.00602051 95.8359375 76.57055664 C97 78 97 78 98 80 C101.73892951 78.49775154 103.54093605 76.39834702 106 73.25 C109.58024763 68.7511362 113.23940663 64.34913546 117 60 C120.53674074 55.898267 124.02865649 51.77195263 127.4375 47.5625 C131.57996379 42.45772157 135.88119099 37.50377318 140.20068359 32.54931641 C144.11285865 28.0516302 147.91120424 23.47553046 151.6640625 18.84375 C154.54475237 15.33682321 157.48429624 11.88341763 160.4375 8.4375 C160.95836182 7.82898193 161.47922363 7.22046387 162.01586914 6.59350586 C167.66001069 0.02589599 167.66001069 0.02589599 170.98095703 -0.22705078 C172.22731934 -0.21657715 173.47368164 -0.20610352 174.7578125 -0.1953125 C175.75238968 -0.19106766 175.75238968 -0.19106766 176.76705933 -0.18673706 C178.88655583 -0.17553435 181.00563104 -0.15043051 183.125 -0.125 C184.56119182 -0.11497028 185.99739025 -0.10584441 187.43359375 -0.09765625 C190.95586628 -0.075595 194.47789203 -0.04106494 198 0 C195.856152 3.27911362 193.74587075 6.47027296 191.15234375 9.41015625 C190.63526855 10.00070801 190.11819336 10.59125977 189.58544922 11.19970703 C189.04162598 11.81442871 188.49780273 12.42915039 187.9375 13.0625 C186.77150866 14.39398265 185.60615455 15.72602358 184.44140625 17.05859375 C183.86148926 17.72101074 183.28157227 18.38342773 182.68408203 19.06591797 C180.22005158 21.89573084 177.79372208 24.75644657 175.375 27.625 C174.92882324 28.15367676 174.48264648 28.68235352 174.02294922 29.22705078 C173.12779469 30.28832314 172.23293588 31.349845 171.33837891 32.41162109 C169.08232573 35.08908953 166.82293394 37.76372957 164.5625 40.4375 C164.11261719 40.96988281 163.66273438 41.50226563 163.19921875 42.05078125 C159.77850105 46.09344762 156.32894463 50.11071961 152.875 54.125 C149.38184894 58.18628745 145.93551604 62.27518587 142.5625 66.4375 C138.467049 71.48090349 134.22645614 76.38592231 129.96191406 81.28588867 C126.22059942 85.58642098 122.50081279 89.90389895 118.8125 94.25 C118.35504395 94.7867334 117.89758789 95.3234668 117.42626953 95.87646484 C113.82843249 100.12670967 111.76001448 102.65896469 111.68115234 108.29760742 C111.66128265 109.37850143 111.64141296 110.45939545 111.62094116 111.57304382 C111.60938995 112.73874405 111.59783875 113.90444427 111.5859375 115.10546875 C111.56657135 116.29981033 111.5472052 117.49415192 111.5272522 118.72468567 C111.46739384 122.54555076 111.42104546 126.36644587 111.375 130.1875 C111.33682603 132.77540388 111.29777465 135.36329499 111.2578125 137.95117188 C111.16168695 144.30067763 111.07767866 150.65024286 111 157 C103.41 157 95.82 157 88 157 C88.04833984 151.45251953 88.04833984 151.45251953 88.09765625 145.79296875 C88.09823949 142.18191193 88.0834162 138.57122069 88.06713867 134.96020508 C88.0640704 132.46473029 88.07683694 129.96918086 88.10620117 127.47387695 C88.97375659 111.40930693 88.97375659 111.40930693 82.83203125 97.26171875 C81.26353974 95.79470053 79.6555715 94.36798797 78 93 C76.86238957 91.72289927 75.74761076 90.42484136 74.6640625 89.1015625 C73.65241373 87.94151037 72.6393921 86.78265403 71.625 85.625 C67.07320004 80.40152469 62.56317626 75.14681822 58.09863281 69.84863281 C54.71518052 65.83615816 51.29899816 61.85289612 47.875 57.875 C44.38176144 53.81379124 40.93551293 49.72481029 37.5625 45.5625 C33.46214086 40.5130523 29.21630651 35.60226983 24.9465332 30.6965332 C0 2.02239895 0 2.02239895 0 0 Z " fill="#000000" transform="translate(3244,401)"/>
<path d="M0 0 C7.59 0 15.18 0 23 0 C23 44.55 23 89.1 23 135 C73.49 135 123.98 135 176 135 C176 142.26 176 149.52 176 157 C117.92 157 59.84 157 0 157 C0 105.19 0 53.38 0 0 Z " fill="#000000" transform="translate(2969,401)"/>
<path d="M0 0 C7.59 0 15.18 0 23 0 C23 44.55 23 89.1 23 135 C73.49 135 123.98 135 176 135 C176 142.26 176 149.52 176 157 C117.92 157 59.84 157 0 157 C0 105.19 0 53.38 0 0 Z " fill="#000000" transform="translate(2264,401)"/>
<path d="M0 0 C5.94 0 11.88 0 18 0 C18 120.45 18 240.9 18 365 C12.06 365 6.12 365 0 365 C0 244.55 0 124.1 0 0 Z " fill="#000000" transform="translate(957,359)"/>
<path d="M0 0 C1.01320313 0.43828125 2.02640625 0.8765625 3.0703125 1.328125 C4.20726562 1.81667969 5.34421875 2.30523438 6.515625 2.80859375 C11.70827823 5.25112611 16.74676053 7.981191 21.77734375 10.73828125 C25.02179026 12.48472045 28.27005241 13.99934659 31.65625 15.4375 C37.93888587 18.25985334 44.04968512 21.4713784 50.1953125 24.578125 C50.1953125 27.578125 50.1953125 27.578125 48.7265625 29.0859375 C48.05625 29.61960937 47.3859375 30.15328125 46.6953125 30.703125 C44.28053554 32.63604481 42.37249014 34.31280075 40.64855957 36.89439392 C37.75193047 41.20860211 35.57098984 43.29259269 30.39233398 44.36746216 C25.56537601 44.73783976 20.74826818 44.59111881 15.9140625 44.45703125 C14.13190944 44.44022581 12.34971454 44.42742378 10.56750488 44.41844177 C5.89749485 44.38422805 1.23004134 44.29595904 -3.43896484 44.19610596 C-8.21156228 44.10370753 -12.98457668 44.06286379 -17.7578125 44.01757812 C-27.10788848 43.92132175 -36.45607466 43.76790693 -45.8046875 43.578125 C-41.87770854 38.86950643 -37.78514244 34.43021403 -33.41796875 30.12890625 C-32.54243599 29.25905342 -32.54243599 29.25905342 -31.6492157 28.37162781 C-29.80764821 26.54214476 -27.96284727 24.71597889 -26.1171875 22.890625 C-23.67286806 20.4729674 -21.2319305 18.05196729 -18.79296875 15.62890625 C-18.23668289 15.08091873 -17.68039703 14.53293121 -17.10725403 13.96833801 C-14.92590782 11.80082275 -12.87986037 9.68032444 -11.05541992 7.19995117 C-10.43630737 6.39714722 -10.43630737 6.39714722 -9.8046875 5.578125 C-9.1446875 5.578125 -8.4846875 5.578125 -7.8046875 5.578125 C-7.8046875 4.918125 -7.8046875 4.258125 -7.8046875 3.578125 C-3.83812417 -0.5773223 -3.83812417 -0.5773223 0 0 Z M-3.8046875 10.578125 C-3.4746875 12.228125 -3.1446875 13.878125 -2.8046875 15.578125 C-0.8246875 16.238125 1.1553125 16.898125 3.1953125 17.578125 C4.57094104 16.28847324 5.90297643 14.95123207 7.1953125 13.578125 C7.1953125 12.918125 7.1953125 12.258125 7.1953125 11.578125 C2.88389626 8.54848116 0.81505021 7.49829986 -3.8046875 10.578125 Z " fill="#000000" transform="translate(346.8046875,739.421875)"/>
<path d="M0 0 C5.32158846 -0.11496471 10.63885113 -0.21444002 15.96069336 -0.2746582 C17.76976132 -0.2997639 19.57872822 -0.33385595 21.38745117 -0.37719727 C23.99162751 -0.43802579 26.59446031 -0.46624809 29.19921875 -0.48828125 C30.00461594 -0.51408768 30.81001312 -0.5398941 31.63981628 -0.56648254 C35.95479828 -0.56862556 37.51378588 -0.38664232 41.01733398 2.39941406 C44.00805715 6.32222938 43.45944629 8.17581399 43 13 C42.773125 13.7425 42.54625 14.485 42.3125 15.25 C42.209375 15.8275 42.10625 16.405 42 17 C42.474375 17.598125 42.94875 18.19625 43.4375 18.8125 C45.69733048 21.97626267 45.40041829 24.1960262 45 28 C42.8 32.6 42.8 32.6 40 34 C37.01029711 34.08705146 34.04415045 34.11550145 31.0546875 34.09765625 C30.1696756 34.0962413 29.2846637 34.09482635 28.37283325 34.09336853 C25.54018809 34.0877614 22.70762136 34.07520771 19.875 34.0625 C17.95703239 34.05748592 16.03906354 34.05292285 14.12109375 34.04882812 C9.41400782 34.03863963 4.70709192 34.01906563 0 34 C0 22.78 0 11.56 0 0 Z M4 3 C4 6.96 4 10.92 4 15 C8.50234373 15.04944705 13.0045293 15.08574161 17.50708008 15.10986328 C19.03868361 15.11991935 20.57026795 15.133566 22.10180664 15.15087891 C24.30359636 15.17514498 26.50513219 15.18648688 28.70703125 15.1953125 C29.73374687 15.21079636 29.73374687 15.21079636 30.78120422 15.22659302 C34.43061661 15.22745382 35.87148502 15.08567666 39 13 C39.97868153 10.13923862 40.22135111 8.61297231 39.1875 5.75 C38.10600632 3.84925076 38.10600632 3.84925076 36 3 C33.59161322 2.91360131 31.21266119 2.88432236 28.8046875 2.90234375 C28.09724396 2.9037587 27.38980042 2.90517365 26.66091919 2.90663147 C24.39890331 2.912234 22.13698602 2.92478682 19.875 2.9375 C18.34244935 2.94251468 16.80989714 2.94707764 15.27734375 2.95117188 C11.51819112 2.96220423 7.75911228 2.97947048 4 3 Z M4 18 C4 22.29 4 26.58 4 31 C8.78715623 31.07415168 13.57397827 31.12860204 18.36157227 31.16479492 C19.99021223 31.17988243 21.61881156 31.20035506 23.24731445 31.22631836 C25.58815535 31.26270449 27.92845919 31.2797262 30.26953125 31.29296875 C31.36186821 31.31619453 31.36186821 31.31619453 32.47627258 31.33988953 C36.43947277 31.3439484 36.43947277 31.3439484 39.95581055 29.70043945 C41.75263874 26.77434444 41.41471784 24.31774272 41 21 C38.58021464 18.34836296 37.11728949 18.01146754 33.51660156 17.65942383 C32.14118457 17.65989577 30.76570685 17.67666632 29.390625 17.70703125 C28.30041046 17.71339851 28.30041046 17.71339851 27.18817139 17.71989441 C24.87506496 17.7366387 22.56284145 17.77428115 20.25 17.8125 C18.67839803 17.82755242 17.10678236 17.84123985 15.53515625 17.85351562 C11.68976585 17.88652805 7.84503244 17.93827944 4 18 Z " fill="#000000" transform="translate(3613,650)"/>
<path d="M0 0 C5 0 5 0 6.59765625 1.51953125 C7.08105469 2.27621094 7.56445312 3.03289063 8.0625 3.8125 C8.93261719 5.15248047 8.93261719 5.15248047 9.8203125 6.51953125 C10.31772949 7.31544678 10.31772949 7.31544678 10.82519531 8.12744141 C12.23449306 10.37376596 13.67625084 12.59806226 15.1171875 14.82421875 C16.22533157 16.54859745 17.33209288 18.27386551 18.4375 20 C18.98220947 20.84925049 19.52691895 21.69850098 20.08813477 22.57348633 C20.59401123 23.37423584 21.0998877 24.17498535 21.62109375 25 C22.0792749 25.721875 22.53745605 26.44375 23.00952148 27.1875 C24 29 24 29 24 31 C24.66 31 25.32 31 26 31 C26.38853149 29.93785278 26.38853149 29.93785278 26.78491211 28.85424805 C28.08844635 25.79223905 29.66232789 23.14372971 31.44140625 20.33203125 C32.10720703 19.27435547 32.77300781 18.21667969 33.45898438 17.12695312 C34.15314453 16.03318359 34.84730469 14.93941406 35.5625 13.8125 C36.93949149 11.63194561 38.31582775 9.45097728 39.69140625 7.26953125 C40.60708374 5.82477417 40.60708374 5.82477417 41.54125977 4.35083008 C42.99028451 2.09576103 42.99028451 2.09576103 44 0 C45.98 0 47.96 0 50 0 C50 11.22 50 22.44 50 34 C48.68 34 47.36 34 46 34 C45.67 25.09 45.34 16.18 45 7 C43.85660156 8.86527344 42.71320312 10.73054687 41.53515625 12.65234375 C40.43010398 14.45292413 39.32457277 16.25320957 38.21899414 18.0534668 C37.44928619 19.30739043 36.68007866 20.56162136 35.91137695 21.81616211 C34.80811019 23.61652843 33.7030645 25.41579171 32.59765625 27.21484375 C31.93258057 28.29886475 31.26750488 29.38288574 30.58227539 30.49975586 C29 33 29 33 28 34 C25.2109375 34.44921875 25.2109375 34.44921875 22 34 C20.17364718 31.9069118 18.9650142 30.19039576 17.625 27.8125 C17.24996338 27.18843262 16.87492676 26.56436523 16.48852539 25.92138672 C15.70547539 24.61602972 14.93126067 23.30533596 14.16552734 21.98974609 C12.68960609 19.47010675 11.15256597 16.99129491 9.60864258 14.51293945 C8.05992894 12.01633687 6.53199301 9.50689765 5 7 C4.67 15.91 4.34 24.82 4 34 C2.68 34 1.36 34 0 34 C0 22.78 0 11.56 0 0 Z " fill="#000000" transform="translate(2069,650)"/>
<path d="M0 0 C5 0 5 0 6.59765625 1.51953125 C7.08105469 2.27621094 7.56445312 3.03289063 8.0625 3.8125 C8.93261719 5.15248047 8.93261719 5.15248047 9.8203125 6.51953125 C10.31772949 7.31544678 10.31772949 7.31544678 10.82519531 8.12744141 C12.23449306 10.37376596 13.67625084 12.59806226 15.1171875 14.82421875 C16.22533157 16.54859745 17.33209288 18.27386551 18.4375 20 C18.98220947 20.84925049 19.52691895 21.69850098 20.08813477 22.57348633 C20.59401123 23.37423584 21.0998877 24.17498535 21.62109375 25 C22.0792749 25.721875 22.53745605 26.44375 23.00952148 27.1875 C24 29 24 29 24 31 C24.66 31 25.32 31 26 31 C26.38853149 29.93785278 26.38853149 29.93785278 26.78491211 28.85424805 C28.08844635 25.79223905 29.66232789 23.14372971 31.44140625 20.33203125 C32.10720703 19.27435547 32.77300781 18.21667969 33.45898438 17.12695312 C34.15314453 16.03318359 34.84730469 14.93941406 35.5625 13.8125 C36.93949149 11.63194561 38.31582775 9.45097728 39.69140625 7.26953125 C40.60708374 5.82477417 40.60708374 5.82477417 41.54125977 4.35083008 C42.99028451 2.09576103 42.99028451 2.09576103 44 0 C45.98 0 47.96 0 50 0 C50 11.22 50 22.44 50 34 C48.68 34 47.36 34 46 34 C45.67 25.09 45.34 16.18 45 7 C43.85660156 8.86527344 42.71320313 10.73054687 41.53515625 12.65234375 C40.43010398 14.45292413 39.32457277 16.25320957 38.21899414 18.0534668 C37.44928619 19.30739043 36.68007866 20.56162136 35.91137695 21.81616211 C34.80811019 23.61652843 33.7030645 25.41579171 32.59765625 27.21484375 C31.93258057 28.29886475 31.26750488 29.38288574 30.58227539 30.49975586 C29 33 29 33 28 34 C25.2109375 34.44921875 25.2109375 34.44921875 22 34 C20.17364718 31.9069118 18.9650142 30.19039576 17.625 27.8125 C17.24996338 27.18843262 16.87492676 26.56436523 16.48852539 25.92138672 C15.70547539 24.61602972 14.93126067 23.30533596 14.16552734 21.98974609 C12.68960609 19.47010675 11.15256597 16.99129491 9.60864258 14.51293945 C8.05992894 12.01633687 6.53199301 9.50689765 5 7 C4.67 15.91 4.34 24.82 4 34 C2.68 34 1.36 34 0 34 C0 22.78 0 11.56 0 0 Z " fill="#000000" transform="translate(1203,650)"/>
<path d="M0 0 C5.01853834 -0.11510409 10.03246036 -0.21453254 15.05126953 -0.2746582 C16.75650589 -0.29973045 18.46163554 -0.33379764 20.16650391 -0.37719727 C22.62429174 -0.43817566 25.08065361 -0.46628112 27.5390625 -0.48828125 C28.29555084 -0.51408768 29.05203918 -0.5398941 29.83145142 -0.56648254 C33.82452066 -0.56857614 36.28720651 -0.17737985 39.46630859 2.34301758 C43.19369614 6.25178214 43.34392176 9.55187388 43.28515625 14.71484375 C42.71885444 19.25301582 40.14967727 22.04193561 36.75 24.875 C35.88375 25.431875 35.88375 25.431875 35 26 C35.78375 26.94875 36.5675 27.8975 37.375 28.875 C37.81585938 29.40867187 38.25671875 29.94234375 38.7109375 30.4921875 C39.75250992 31.71051161 40.86660097 32.86660097 42 34 C39.4375 34.5 39.4375 34.5 36 34 C34.58789062 32.23632812 34.58789062 32.23632812 33.09375 30.03125 C30.80917791 27.30416117 29.56867447 26.1470504 26.09204102 25.24804688 C22.72725061 24.99079448 19.43640286 24.9424576 16.0625 25 C14.90169922 24.98839844 13.74089844 24.97679687 12.54492188 24.96484375 C9.69480898 24.94138603 6.8496998 24.95412445 4 25 C4 27.97 4 30.94 4 34 C2.68 34 1.36 34 0 34 C0 22.78 0 11.56 0 0 Z M4 3 C4 9.27 4 15.54 4 22 C8.03890609 22.06906299 12.07629805 22.1287351 16.11547852 22.16479492 C17.48794517 22.17983432 18.86036414 22.20027133 20.23266602 22.22631836 C22.21088656 22.26291221 24.18946514 22.27816698 26.16796875 22.29296875 C27.35672607 22.3086792 28.5454834 22.32438965 29.77026367 22.34057617 C33.32385269 21.96584969 35.16329692 21.13161732 38 19 C39.88044634 15.92290598 40.00114202 14.06509524 39.9375 10.4375 C38.7840831 6.2083047 37.67064328 5.30468513 34 3 C30.62122216 2.45218665 30.62122216 2.45218665 26.94921875 2.609375 C25.96100883 2.61786469 25.96100883 2.61786469 24.95283508 2.62652588 C22.86362784 2.64878761 20.77618227 2.6989567 18.6875 2.75 C17.26499886 2.77007856 15.84247063 2.78832696 14.41992188 2.8046875 C10.94540207 2.84520668 7.47465522 2.92349383 4 3 Z " fill="#000000" transform="translate(4160,650)"/>
<path d="M0 0 C5.01853834 -0.11510409 10.03246036 -0.21453254 15.05126953 -0.2746582 C16.75650589 -0.29973045 18.46163554 -0.33379764 20.16650391 -0.37719727 C22.62429174 -0.43817566 25.08065361 -0.46628112 27.5390625 -0.48828125 C28.29555084 -0.51408768 29.05203918 -0.5398941 29.83145142 -0.56648254 C33.82452066 -0.56857614 36.28720651 -0.17737985 39.46630859 2.34301758 C43.19369614 6.25178214 43.34392176 9.55187388 43.28515625 14.71484375 C42.71885444 19.25301582 40.14967727 22.04193561 36.75 24.875 C35.88375 25.431875 35.88375 25.431875 35 26 C35.78375 26.94875 36.5675 27.8975 37.375 28.875 C37.81585937 29.40867187 38.25671875 29.94234375 38.7109375 30.4921875 C39.75250992 31.71051161 40.86660097 32.86660097 42 34 C39.4375 34.5 39.4375 34.5 36 34 C34.58789062 32.23632812 34.58789062 32.23632812 33.09375 30.03125 C30.80917791 27.30416117 29.56867447 26.1470504 26.09204102 25.24804688 C22.72725061 24.99079448 19.43640286 24.9424576 16.0625 25 C14.90169922 24.98839844 13.74089844 24.97679687 12.54492188 24.96484375 C9.69480898 24.94138603 6.8496998 24.95412445 4 25 C4 27.97 4 30.94 4 34 C2.68 34 1.36 34 0 34 C0 22.78 0 11.56 0 0 Z M4 3 C4 9.27 4 15.54 4 22 C8.03890609 22.06906299 12.07629805 22.1287351 16.11547852 22.16479492 C17.48794517 22.17983432 18.86036414 22.20027133 20.23266602 22.22631836 C22.21088656 22.26291221 24.18946514 22.27816698 26.16796875 22.29296875 C27.35672607 22.3086792 28.5454834 22.32438965 29.77026367 22.34057617 C33.32385269 21.96584969 35.16329692 21.13161732 38 19 C39.88044634 15.92290598 40.00114202 14.06509524 39.9375 10.4375 C38.7840831 6.2083047 37.67064328 5.30468513 34 3 C30.62122216 2.45218665 30.62122216 2.45218665 26.94921875 2.609375 C25.96100883 2.61786469 25.96100883 2.61786469 24.95283508 2.62652588 C22.86362784 2.64878761 20.77618227 2.6989567 18.6875 2.75 C17.26499886 2.77007856 15.84247063 2.78832696 14.41992188 2.8046875 C10.94540207 2.84520668 7.47465522 2.92349383 4 3 Z " fill="#000000" transform="translate(3201,650)"/>
<path d="M0 0 C5.01853834 -0.11510409 10.03246036 -0.21453254 15.05126953 -0.2746582 C16.75650589 -0.29973045 18.46163554 -0.33379764 20.16650391 -0.37719727 C22.62429174 -0.43817566 25.08065361 -0.46628112 27.5390625 -0.48828125 C28.29555084 -0.51408768 29.05203918 -0.5398941 29.83145142 -0.56648254 C33.82452066 -0.56857614 36.28720651 -0.17737985 39.46630859 2.34301758 C43.19369614 6.25178214 43.34392176 9.55187388 43.28515625 14.71484375 C42.71885444 19.25301582 40.14967727 22.04193561 36.75 24.875 C35.88375 25.431875 35.88375 25.431875 35 26 C35.78375 26.94875 36.5675 27.8975 37.375 28.875 C37.81585937 29.40867187 38.25671875 29.94234375 38.7109375 30.4921875 C39.75250992 31.71051161 40.86660097 32.86660097 42 34 C39.4375 34.5 39.4375 34.5 36 34 C34.58789062 32.23632812 34.58789062 32.23632812 33.09375 30.03125 C30.80917791 27.30416117 29.56867447 26.1470504 26.09204102 25.24804688 C22.72725061 24.99079448 19.43640286 24.9424576 16.0625 25 C14.90169922 24.98839844 13.74089844 24.97679687 12.54492188 24.96484375 C9.69480898 24.94138603 6.8496998 24.95412445 4 25 C4 27.97 4 30.94 4 34 C2.68 34 1.36 34 0 34 C0 22.78 0 11.56 0 0 Z M4 3 C4 9.27 4 15.54 4 22 C8.03890609 22.06906299 12.07629805 22.1287351 16.11547852 22.16479492 C17.48794517 22.17983432 18.86036414 22.20027133 20.23266602 22.22631836 C22.21088656 22.26291221 24.18946514 22.27816698 26.16796875 22.29296875 C27.35672607 22.3086792 28.5454834 22.32438965 29.77026367 22.34057617 C33.32385269 21.96584969 35.16329692 21.13161732 38 19 C39.88044634 15.92290598 40.00114202 14.06509524 39.9375 10.4375 C38.7840831 6.2083047 37.67064328 5.30468513 34 3 C30.62122216 2.45218665 30.62122216 2.45218665 26.94921875 2.609375 C25.96100883 2.61786469 25.96100883 2.61786469 24.95283508 2.62652588 C22.86362784 2.64878761 20.77618227 2.6989567 18.6875 2.75 C17.26499886 2.77007856 15.84247063 2.78832696 14.41992188 2.8046875 C10.94540207 2.84520668 7.47465522 2.92349383 4 3 Z " fill="#000000" transform="translate(2630,650)"/>
<path d="M0 0 C5.01853834 -0.11510409 10.03246036 -0.21453254 15.05126953 -0.2746582 C16.75650589 -0.29973045 18.46163554 -0.33379764 20.16650391 -0.37719727 C22.62429174 -0.43817566 25.08065361 -0.46628112 27.5390625 -0.48828125 C28.29555084 -0.51408768 29.05203918 -0.5398941 29.83145142 -0.56648254 C33.82452066 -0.56857614 36.28720651 -0.17737985 39.46630859 2.34301758 C43.19369614 6.25178214 43.34392176 9.55187388 43.28515625 14.71484375 C42.71885444 19.25301582 40.14967727 22.04193561 36.75 24.875 C35.88375 25.431875 35.88375 25.431875 35 26 C35.78375 26.94875 36.5675 27.8975 37.375 28.875 C37.81585937 29.40867187 38.25671875 29.94234375 38.7109375 30.4921875 C39.75250992 31.71051161 40.86660097 32.86660097 42 34 C39.4375 34.5 39.4375 34.5 36 34 C34.58789062 32.23632812 34.58789062 32.23632812 33.09375 30.03125 C30.80917791 27.30416117 29.56867447 26.1470504 26.09204102 25.24804688 C22.72725061 24.99079448 19.43640286 24.9424576 16.0625 25 C14.90169922 24.98839844 13.74089844 24.97679687 12.54492188 24.96484375 C9.69480898 24.94138603 6.8496998 24.95412445 4 25 C4 27.97 4 30.94 4 34 C2.68 34 1.36 34 0 34 C0 22.78 0 11.56 0 0 Z M4 3 C4 9.27 4 15.54 4 22 C8.03890609 22.06906299 12.07629805 22.1287351 16.11547852 22.16479492 C17.48794517 22.17983432 18.86036414 22.20027133 20.23266602 22.22631836 C22.21088656 22.26291221 24.18946514 22.27816698 26.16796875 22.29296875 C27.35672607 22.3086792 28.5454834 22.32438965 29.77026367 22.34057617 C33.32385269 21.96584969 35.16329692 21.13161732 38 19 C39.88044634 15.92290598 40.00114202 14.06509524 39.9375 10.4375 C38.7840831 6.2083047 37.67064328 5.30468513 34 3 C30.62122216 2.45218665 30.62122216 2.45218665 26.94921875 2.609375 C25.96100883 2.61786469 25.96100883 2.61786469 24.95283508 2.62652588 C22.86362784 2.64878761 20.77618227 2.6989567 18.6875 2.75 C17.26499886 2.77007856 15.84247063 2.78832696 14.41992188 2.8046875 C10.94540207 2.84520668 7.47465522 2.92349383 4 3 Z " fill="#000000" transform="translate(2302,650)"/>
<path d="M0 0 C13.53 0 27.06 0 41 0 C41 0.99 41 1.98 41 3 C28.79 3 16.58 3 4 3 C4 6.96 4 10.92 4 15 C13.24 15 22.48 15 32 15 C32 15.99 32 16.98 32 18 C22.76 18 13.52 18 4 18 C4 22.29 4 26.58 4 31 C16.21 31 28.42 31 41 31 C41 31.99 41 32.98 41 34 C27.47 34 13.94 34 0 34 C0 22.78 0 11.56 0 0 Z " fill="#000000" transform="translate(4051,650)"/>
<path d="M0 0 C13.53 0 27.06 0 41 0 C41 0.99 41 1.98 41 3 C28.79 3 16.58 3 4 3 C4 6.96 4 10.92 4 15 C13.24 15 22.48 15 32 15 C32 15.99 32 16.98 32 18 C22.76 18 13.52 18 4 18 C4 22.29 4 26.58 4 31 C16.21 31 28.42 31 41 31 C41 31.99 41 32.98 41 34 C27.47 34 13.94 34 0 34 C0 22.78 0 11.56 0 0 Z " fill="#000000" transform="translate(3725,650)"/>
<path d="M0 0 C13.53 0 27.06 0 41 0 C41 0.99 41 1.98 41 3 C28.79 3 16.58 3 4 3 C4 6.96 4 10.92 4 15 C13.24 15 22.48 15 32 15 C32 15.99 32 16.98 32 18 C22.76 18 13.52 18 4 18 C4 22.29 4 26.58 4 31 C16.21 31 28.42 31 41 31 C41 31.99 41 32.98 41 34 C27.47 34 13.94 34 0 34 C0 22.78 0 11.56 0 0 Z " fill="#000000" transform="translate(3424,650)"/>
<path d="M0 0 C13.53 0 27.06 0 41 0 C41 0.99 41 1.98 41 3 C28.79 3 16.58 3 4 3 C4 6.96 4 10.92 4 15 C13.24 15 22.48 15 32 15 C32 15.99 32 16.98 32 18 C22.76 18 13.52 18 4 18 C4 22.29 4 26.58 4 31 C16.21 31 28.42 31 41 31 C41 31.99 41 32.98 41 34 C27.47 34 13.94 34 0 34 C0 22.78 0 11.56 0 0 Z " fill="#000000" transform="translate(3092,650)"/>
<path d="M0 0 C1.22763565 0.00212242 1.22763565 0.00212242 2.48007202 0.00428772 C5.09873075 0.00989335 7.71730454 0.02244677 10.3359375 0.03515625 C12.10937377 0.04017053 13.88281137 0.04473356 15.65625 0.04882812 C20.00784532 0.05986461 24.359377 0.077133 28.7109375 0.09765625 C28.7109375 1.08765625 28.7109375 2.07765625 28.7109375 3.09765625 C27.66115723 3.11747559 26.61137695 3.13729492 25.52978516 3.15771484 C21.64200489 3.23367823 17.75460347 3.32240923 13.8671875 3.41503906 C12.18334421 3.45336729 10.49941795 3.48821337 8.81542969 3.51953125 C6.39748444 3.56509912 3.98011222 3.62310548 1.5625 3.68359375 C0.42961044 3.70092056 0.42961044 3.70092056 -0.72616577 3.71859741 C-4.96731448 3.70095691 -4.96731448 3.70095691 -8.2890625 6.09765625 C-8.62239583 9.09765625 -8.62239583 9.09765625 -8.2890625 12.09765625 C-5.47680857 14.90991018 -3.60704702 14.38116078 0.328125 14.44140625 C1.30847214 14.46334045 1.30847214 14.46334045 2.30862427 14.48571777 C4.40099975 14.53226284 6.49328078 14.56642257 8.5859375 14.59765625 C11.33368075 14.63887557 14.08076439 14.69261647 16.828125 14.75390625 C18.66286377 14.78194336 18.66286377 14.78194336 20.53466797 14.81054688 C23.53381635 15.08164591 25.22123015 15.46588361 27.7109375 17.09765625 C30.00532756 20.08036332 30.04259071 23.31770669 30.26953125 27 C29.34975332 30.45399124 27.46409911 31.88666816 24.7109375 34.09765625 C21.71902307 34.53622892 19.32078865 34.68667401 16.34765625 34.5859375 C15.55567337 34.57886276 14.76369049 34.57178802 13.94770813 34.5644989 C11.43030361 34.53661869 8.91516394 34.47389825 6.3984375 34.41015625 C4.6868812 34.38506486 2.97528985 34.36225316 1.26367188 34.34179688 C-2.92143904 34.28681372 -7.10486746 34.20059043 -11.2890625 34.09765625 C-11.2890625 33.10765625 -11.2890625 32.11765625 -11.2890625 31.09765625 C-10.2695752 31.0726001 -9.25008789 31.04754395 -8.19970703 31.02172852 C-4.42385896 30.92768621 -0.64819623 30.82745788 3.12744141 30.7253418 C4.76281403 30.68198087 6.39823227 30.64030664 8.03369141 30.6003418 C10.38197591 30.54266713 12.73003054 30.47896496 15.078125 30.4140625 C15.81151093 30.39735001 16.54489685 30.38063751 17.30050659 30.36341858 C21.13296058 30.31127663 21.13296058 30.31127663 24.7109375 29.09765625 C25.72463877 26.26803296 25.72463877 26.26803296 25.7109375 23.09765625 C24.20398345 20.78433675 24.20398345 20.78433675 21.7109375 19.09765625 C18.49236024 18.52055442 18.49236024 18.52055442 14.8984375 18.62890625 C14.24770264 18.62185669 13.59696777 18.61480713 12.92651367 18.60754395 C10.85425231 18.58555148 8.78328114 18.58850364 6.7109375 18.59765625 C3.98107374 18.60971283 1.25313292 18.59597767 -1.4765625 18.56640625 C-2.68699219 18.57091797 -3.89742187 18.57542969 -5.14453125 18.58007812 C-8.87824599 18.00726599 -9.99824489 17.03088691 -12.2890625 14.09765625 C-13.69906914 11.27764298 -13.53454701 9.2275837 -13.2890625 6.09765625 C-10.0641359 -0.49878452 -6.81413597 -0.04401675 0 0 Z " fill="#000000" transform="translate(2995.2890625,649.90234375)"/>
<path d="M0 0 C13.53 0 27.06 0 41 0 C41 0.99 41 1.98 41 3 C28.79 3 16.58 3 4 3 C4 6.96 4 10.92 4 15 C13.24 15 22.48 15 32 15 C32 15.99 32 16.98 32 18 C22.76 18 13.52 18 4 18 C4 22.29 4 26.58 4 31 C16.21 31 28.42 31 41 31 C41 31.99 41 32.98 41 34 C27.47 34 13.94 34 0 34 C0 22.78 0 11.56 0 0 Z " fill="#000000" transform="translate(2521,650)"/>
<path d="M0 0 C1.22763565 0.00212242 1.22763565 0.00212242 2.48007202 0.00428772 C5.09873075 0.00989335 7.71730454 0.02244677 10.3359375 0.03515625 C12.10937377 0.04017053 13.88281137 0.04473356 15.65625 0.04882812 C20.00784532 0.05986461 24.359377 0.077133 28.7109375 0.09765625 C28.7109375 1.08765625 28.7109375 2.07765625 28.7109375 3.09765625 C27.66115723 3.11747559 26.61137695 3.13729492 25.52978516 3.15771484 C21.64200489 3.23367823 17.75460347 3.32240923 13.8671875 3.41503906 C12.18334421 3.45336729 10.49941795 3.48821337 8.81542969 3.51953125 C6.39748444 3.56509912 3.98011222 3.62310548 1.5625 3.68359375 C0.42961044 3.70092056 0.42961044 3.70092056 -0.72616577 3.71859741 C-4.96731448 3.70095691 -4.96731448 3.70095691 -8.2890625 6.09765625 C-8.62239583 9.09765625 -8.62239583 9.09765625 -8.2890625 12.09765625 C-5.47680857 14.90991018 -3.60704702 14.38116078 0.328125 14.44140625 C1.30847214 14.46334045 1.30847214 14.46334045 2.30862427 14.48571777 C4.40099975 14.53226284 6.49328078 14.56642257 8.5859375 14.59765625 C11.33368075 14.63887557 14.08076439 14.69261647 16.828125 14.75390625 C18.66286377 14.78194336 18.66286377 14.78194336 20.53466797 14.81054688 C23.53381635 15.08164591 25.22123015 15.46588361 27.7109375 17.09765625 C30.00532756 20.08036332 30.04259071 23.31770669 30.26953125 27 C29.34975332 30.45399124 27.46409911 31.88666816 24.7109375 34.09765625 C21.71902307 34.53622892 19.32078865 34.68667401 16.34765625 34.5859375 C15.55567337 34.57886276 14.76369049 34.57178802 13.94770813 34.5644989 C11.43030361 34.53661869 8.91516394 34.47389825 6.3984375 34.41015625 C4.6868812 34.38506486 2.97528985 34.36225316 1.26367188 34.34179688 C-2.92143904 34.28681372 -7.10486746 34.20059043 -11.2890625 34.09765625 C-11.2890625 33.10765625 -11.2890625 32.11765625 -11.2890625 31.09765625 C-10.2695752 31.0726001 -9.25008789 31.04754395 -8.19970703 31.02172852 C-4.42385896 30.92768621 -0.64819623 30.82745788 3.12744141 30.7253418 C4.76281403 30.68198087 6.39823227 30.64030664 8.03369141 30.6003418 C10.38197591 30.54266713 12.73003054 30.47896496 15.078125 30.4140625 C15.81151093 30.39735001 16.54489685 30.38063751 17.30050659 30.36341858 C21.13296058 30.31127663 21.13296058 30.31127663 24.7109375 29.09765625 C25.72463877 26.26803296 25.72463877 26.26803296 25.7109375 23.09765625 C24.20398345 20.78433675 24.20398345 20.78433675 21.7109375 19.09765625 C18.49236024 18.52055442 18.49236024 18.52055442 14.8984375 18.62890625 C14.24770264 18.62185669 13.59696777 18.61480713 12.92651367 18.60754395 C10.85425231 18.58555148 8.78328114 18.58850364 6.7109375 18.59765625 C3.98107374 18.60971283 1.25313292 18.59597767 -1.4765625 18.56640625 C-2.68699219 18.57091797 -3.89742187 18.57542969 -5.14453125 18.58007812 C-8.87824599 18.00726599 -9.99824489 17.03088691 -12.2890625 14.09765625 C-13.69906914 11.27764298 -13.53454701 9.2275837 -13.2890625 6.09765625 C-10.0641359 -0.49878452 -6.81413597 -0.04401675 0 0 Z " fill="#000000" transform="translate(1972.2890625,649.90234375)"/>
<path d="M0 0 C13.53 0 27.06 0 41 0 C41 0.99 41 1.98 41 3 C28.79 3 16.58 3 4 3 C4 6.96 4 10.92 4 15 C13.24 15 22.48 15 32 15 C32 15.99 32 16.98 32 18 C22.76 18 13.52 18 4 18 C4 22.29 4 26.58 4 31 C16.21 31 28.42 31 41 31 C41 31.99 41 32.98 41 34 C27.47 34 13.94 34 0 34 C0 22.78 0 11.56 0 0 Z " fill="#000000" transform="translate(1770,650)"/>
<path d="M0 0 C0.70744354 0.00141495 1.41488708 0.0028299 2.14376831 0.00428772 C4.40578419 0.00989025 6.66770148 0.02244307 8.9296875 0.03515625 C10.46223815 0.04017093 11.99479036 0.04473389 13.52734375 0.04882812 C17.28649638 0.05986048 21.04557522 0.07712673 24.8046875 0.09765625 C24.8046875 1.08765625 24.8046875 2.07765625 24.8046875 3.09765625 C23.92208252 3.11223877 23.03947754 3.12682129 22.13012695 3.1418457 C18.84030107 3.20307692 15.5512882 3.27725955 12.26196289 3.36010742 C10.84117548 3.39326182 9.42025937 3.42132317 7.99926758 3.4440918 C5.9507793 3.47781472 3.9034603 3.5301337 1.85546875 3.5859375 C0.00949097 3.62521362 0.00949097 3.62521362 -1.8737793 3.6652832 C-6.28480414 4.23947835 -8.91761267 5.77811036 -11.984375 8.9453125 C-14.2820262 13.02920221 -13.68763192 17.55887581 -13.1953125 22.09765625 C-11.48253387 26.42467594 -9.29024566 28.02991773 -5.1953125 30.09765625 C-2.10912355 30.59632983 -2.10912355 30.59632983 1.19921875 30.609375 C2.40126953 30.64482422 3.60332031 30.68027344 4.84179688 30.71679688 C6.08767578 30.73935547 7.33355469 30.76191406 8.6171875 30.78515625 C9.88240234 30.81931641 11.14761719 30.85347656 12.45117188 30.88867188 C15.56870109 30.9710217 18.68668001 31.03601875 21.8046875 31.09765625 C21.8046875 27.13765625 21.8046875 23.17765625 21.8046875 19.09765625 C14.2146875 19.09765625 6.6246875 19.09765625 -1.1953125 19.09765625 C-1.1953125 18.10765625 -1.1953125 17.11765625 -1.1953125 16.09765625 C7.3846875 16.09765625 15.9646875 16.09765625 24.8046875 16.09765625 C24.8046875 22.03765625 24.8046875 27.97765625 24.8046875 34.09765625 C20.33836348 34.16668358 15.87390395 34.22636559 11.4074707 34.26245117 C9.88950312 34.27749978 8.37157874 34.29794363 6.85375977 34.32397461 C4.66672073 34.36053278 2.48025854 34.37742148 0.29296875 34.390625 C-1.67869263 34.41419067 -1.67869263 34.41419067 -3.69018555 34.43823242 C-8.06379444 34.01327008 -10.58882462 32.61895159 -13.7421875 29.6328125 C-17.79212853 24.67557949 -18.52508138 21.5767219 -18.40625 15.18359375 C-17.89614152 10.13918765 -15.93090675 6.46357286 -12.1328125 3.22265625 C-7.83388383 0.11279296 -5.15858475 -0.03860709 0 0 Z " fill="#000000" transform="translate(1677.1953125,649.90234375)"/>
<path d="M0 0 C5.84349508 0 7.57392691 1.66879438 11.625 5.375 C12.54587402 6.19049316 12.54587402 6.19049316 13.48535156 7.02246094 C15.33644173 8.66798116 17.17079738 10.33020942 19 12 C19.5146582 12.46889648 20.02931641 12.93779297 20.55957031 13.42089844 C22.75252423 15.42161769 24.93970251 17.42713943 27.109375 19.453125 C31.27497043 23.12335233 35.66475351 26.53180281 40 30 C40 20.1 40 10.2 40 0 C40.99 0 41.98 0 43 0 C43 11.22 43 22.44 43 34 C37.37725244 34 37.37725244 34 34.6171875 31.47265625 C33.71033203 30.66163452 33.71033203 30.66163452 32.78515625 29.83422852 C32.15480469 29.24955811 31.52445313 28.6648877 30.875 28.0625 C29.54017431 26.86334458 28.20422887 25.66543447 26.8671875 24.46875 C26.21202148 23.87707031 25.55685547 23.28539062 24.88183594 22.67578125 C21.5375149 19.69765208 18.04857555 16.90774599 14.5625 14.09765625 C11.33046787 11.45192263 8.17128841 8.71824721 5 6 C4.67 15.24 4.34 24.48 4 34 C2.68 34 1.36 34 0 34 C0 22.78 0 11.56 0 0 Z " fill="#000000" transform="translate(1436,650)"/>
<path d="M0 0 C2.46582031 0.02978516 2.46582031 0.02978516 4.9921875 0.94921875 C8.7057603 5.24467459 11.21932502 10.13840718 13.8671875 15.13671875 C14.6166412 16.49328176 15.36921738 17.84812469 16.125 19.20117188 C17.51436817 21.69715429 18.88411935 24.20188159 20.23388672 26.71948242 C21.75323853 29.51030513 23.33344965 32.2396491 24.9921875 34.94921875 C22.6796875 35.26171875 22.6796875 35.26171875 19.9921875 34.94921875 C18.17335741 32.56592415 16.9921875 30.99103538 16.9921875 27.94921875 C12.36471158 27.9438858 7.73975289 27.97748506 3.11279297 28.046875 C1.53963761 28.06502056 -0.03367699 28.07260606 -1.60693359 28.06933594 C-3.87201762 28.06647418 -6.13381007 28.10182434 -8.3984375 28.14453125 C-9.09962708 28.13543732 -9.80081665 28.12634338 -10.52325439 28.11697388 C-12.79309085 28.12160047 -12.79309085 28.12160047 -16.0078125 28.94921875 C-18.53152311 31.84753675 -18.53152311 31.84753675 -20.0078125 34.94921875 C-21.3278125 34.61921875 -22.6478125 34.28921875 -24.0078125 33.94921875 C-21.32213849 29.40910562 -18.63452046 24.87015149 -15.94506836 20.33227539 C-15.02981462 18.78734789 -14.11509949 17.24210118 -13.20092773 15.6965332 C-11.88926318 13.47914472 -10.57568623 11.2628994 -9.26171875 9.046875 C-8.64605797 8.00467552 -8.64605797 8.00467552 -8.01795959 6.94142151 C-4.29613537 0.67258024 -4.29613537 0.67258024 0 0 Z M-2.0078125 3.94921875 C-4.01135292 7.25958972 -6.01004802 10.57285942 -8.0078125 13.88671875 C-8.86632813 15.30500977 -8.86632813 15.30500977 -9.7421875 16.75195312 C-10.28359375 17.65107422 -10.825 18.55019531 -11.3828125 19.4765625 C-11.88554687 20.30921631 -12.38828125 21.14187012 -12.90625 21.99975586 C-14.08980468 23.72112874 -14.08980468 23.72112874 -14.0078125 24.94921875 C-4.7678125 24.94921875 4.4721875 24.94921875 13.9921875 24.94921875 C12.17072158 20.39555395 10.13472921 16.41133989 7.6796875 12.19921875 C7.30134766 11.51472656 6.92300781 10.83023438 6.53320312 10.125 C4.30561092 6.13142264 4.30561092 6.13142264 0.34301758 4.24902344 C-0.43275635 4.15008789 -1.20853027 4.05115234 -2.0078125 3.94921875 Z " fill="#000000" transform="translate(2211.0078125,649.05078125)"/>
<path d="M0 0 C2.46582031 0.02978516 2.46582031 0.02978516 4.9921875 0.94921875 C8.7057603 5.24467459 11.21932502 10.13840718 13.8671875 15.13671875 C14.6166412 16.49328176 15.36921738 17.84812469 16.125 19.20117188 C17.51436817 21.69715429 18.88411935 24.20188159 20.23388672 26.71948242 C21.75323853 29.51030513 23.33344965 32.2396491 24.9921875 34.94921875 C22.6796875 35.26171875 22.6796875 35.26171875 19.9921875 34.94921875 C18.17335741 32.56592415 16.9921875 30.99103538 16.9921875 27.94921875 C12.36471158 27.9438858 7.73975289 27.97748506 3.11279297 28.046875 C1.53963761 28.06502056 -0.03367699 28.07260606 -1.60693359 28.06933594 C-3.87201762 28.06647418 -6.13381007 28.10182434 -8.3984375 28.14453125 C-9.09962708 28.13543732 -9.80081665 28.12634338 -10.52325439 28.11697388 C-12.79309085 28.12160047 -12.79309085 28.12160047 -16.0078125 28.94921875 C-18.53152311 31.84753675 -18.53152311 31.84753675 -20.0078125 34.94921875 C-21.3278125 34.61921875 -22.6478125 34.28921875 -24.0078125 33.94921875 C-21.32213849 29.40910562 -18.63452046 24.87015149 -15.94506836 20.33227539 C-15.02981462 18.78734789 -14.11509949 17.24210118 -13.20092773 15.6965332 C-11.88926318 13.47914472 -10.57568623 11.2628994 -9.26171875 9.046875 C-8.64605797 8.00467552 -8.64605797 8.00467552 -8.01795959 6.94142151 C-4.29613537 0.67258024 -4.29613537 0.67258024 0 0 Z M-2.0078125 3.94921875 C-4.01135292 7.25958972 -6.01004802 10.57285942 -8.0078125 13.88671875 C-8.86632813 15.30500977 -8.86632813 15.30500977 -9.7421875 16.75195312 C-10.28359375 17.65107422 -10.825 18.55019531 -11.3828125 19.4765625 C-11.88554688 20.30921631 -12.38828125 21.14187012 -12.90625 21.99975586 C-14.08980468 23.72112874 -14.08980468 23.72112874 -14.0078125 24.94921875 C-4.7678125 24.94921875 4.4721875 24.94921875 13.9921875 24.94921875 C12.17072158 20.39555395 10.13472921 16.41133989 7.6796875 12.19921875 C7.30134766 11.51472656 6.92300781 10.83023438 6.53320312 10.125 C4.30561092 6.13142264 4.30561092 6.13142264 0.34301758 4.24902344 C-0.43275635 4.15008789 -1.20853027 4.05115234 -2.0078125 3.94921875 Z " fill="#000000" transform="translate(1571.0078125,649.05078125)"/>
<path d="M0 0 C2.46582031 0.02978516 2.46582031 0.02978516 4.9921875 0.94921875 C8.7057603 5.24467459 11.21932502 10.13840718 13.8671875 15.13671875 C14.6166412 16.49328176 15.36921738 17.84812469 16.125 19.20117188 C17.51436817 21.69715429 18.88411935 24.20188159 20.23388672 26.71948242 C21.75323853 29.51030513 23.33344965 32.2396491 24.9921875 34.94921875 C22.6796875 35.26171875 22.6796875 35.26171875 19.9921875 34.94921875 C18.17335741 32.56592415 16.9921875 30.99103538 16.9921875 27.94921875 C12.36471158 27.9438858 7.73975289 27.97748506 3.11279297 28.046875 C1.53963761 28.06502056 -0.03367699 28.07260606 -1.60693359 28.06933594 C-3.87201762 28.06647418 -6.13381007 28.10182434 -8.3984375 28.14453125 C-9.09962708 28.13543732 -9.80081665 28.12634338 -10.52325439 28.11697388 C-12.79309085 28.12160047 -12.79309085 28.12160047 -16.0078125 28.94921875 C-18.53152311 31.84753675 -18.53152311 31.84753675 -20.0078125 34.94921875 C-21.3278125 34.61921875 -22.6478125 34.28921875 -24.0078125 33.94921875 C-21.32213849 29.40910562 -18.63452046 24.87015149 -15.94506836 20.33227539 C-15.02981462 18.78734789 -14.11509949 17.24210118 -13.20092773 15.6965332 C-11.88926318 13.47914472 -10.57568623 11.2628994 -9.26171875 9.046875 C-8.64605797 8.00467552 -8.64605797 8.00467552 -8.01795959 6.94142151 C-4.29613537 0.67258024 -4.29613537 0.67258024 0 0 Z M-2.0078125 3.94921875 C-4.01135292 7.25958972 -6.01004802 10.57285942 -8.0078125 13.88671875 C-8.86632813 15.30500977 -8.86632813 15.30500977 -9.7421875 16.75195312 C-10.28359375 17.65107422 -10.825 18.55019531 -11.3828125 19.4765625 C-11.88554688 20.30921631 -12.38828125 21.14187012 -12.90625 21.99975586 C-14.08980468 23.72112874 -14.08980468 23.72112874 -14.0078125 24.94921875 C-4.7678125 24.94921875 4.4721875 24.94921875 13.9921875 24.94921875 C12.17072158 20.39555395 10.13472921 16.41133989 7.6796875 12.19921875 C7.30134766 11.51472656 6.92300781 10.83023438 6.53320312 10.125 C4.30561092 6.13142264 4.30561092 6.13142264 0.34301758 4.24902344 C-0.43275635 4.15008789 -1.20853027 4.05115234 -2.0078125 3.94921875 Z " fill="#000000" transform="translate(1345.0078125,649.05078125)"/>
<path d="M0 0 C2.23046875 0.078125 2.23046875 0.078125 5 1 C6.67731316 3.252478 7.98609243 5.30478341 9.3125 7.75 C10.08747118 9.11389006 10.86353575 10.47715937 11.640625 11.83984375 C12.02927734 12.53190918 12.41792969 13.22397461 12.81835938 13.93701172 C14.64139468 17.1197903 16.60338994 20.21231136 18.5625 23.3125 C22 28.76023392 22 28.76023392 22 31 C25.60638003 30.05140612 26.85738579 29.20110779 29.04882812 26.11083984 C29.72337515 24.90176947 30.38345439 23.68454924 31.03125 22.4609375 C31.76677286 21.14574707 32.50245469 19.83064554 33.23828125 18.515625 C34.37600559 16.44022659 35.50729669 14.36152484 36.63427734 12.28027344 C37.7301447 10.26888935 38.84818651 8.27113758 39.96875 6.2734375 C40.29911255 5.64537201 40.6294751 5.01730652 40.96984863 4.37020874 C41.95117188 2.63037109 41.95117188 2.63037109 44 0 C46.75195312 -0.39208984 46.75195312 -0.39208984 49 0 C47.20058904 3.19660065 45.38426231 6.38210603 43.54296875 9.5546875 C41.66664841 12.79743421 39.88073538 16.07958642 38.11328125 19.3828125 C37.09734614 21.21409233 36.08042453 23.04482524 35.0625 24.875 C34.5974707 25.7731543 34.13244141 26.67130859 33.65332031 27.59667969 C31.80441228 30.85403917 30.33132969 33.32994133 26.92871094 35.04248047 C24.00457321 35.53490678 22.66998542 35.32958001 20 34 C16.33875746 29.85440763 13.78455475 25.20076682 11.125 20.375 C10.37542686 19.07507043 9.62284844 17.77686889 8.8671875 16.48046875 C5.73806322 11.07104943 2.75829366 5.60891958 0 0 Z " fill="#000000" transform="translate(3309,650)"/>
<path d="M0 0 C13.53 0 27.06 0 41 0 C41 0.99 41 1.98 41 3 C34.73 3 28.46 3 22 3 C22 13.23 22 23.46 22 34 C20.68 34 19.36 34 18 34 C18 23.77 18 13.54 18 3 C12.06 3 6.12 3 0 3 C0 2.01 0 1.02 0 0 Z " fill="#000000" transform="translate(3942,650)"/>
<path d="M0 0 C13.53 0 27.06 0 41 0 C41 0.99 41 1.98 41 3 C34.73 3 28.46 3 22 3 C22 13.23 22 23.46 22 34 C20.68 34 19.36 34 18 34 C18 23.77 18 13.54 18 3 C12.06 3 6.12 3 0 3 C0 2.01 0 1.02 0 0 Z " fill="#000000" transform="translate(3834,650)"/>
<path d="M0 0 C13.53 0 27.06 0 41 0 C41 0.99 41 1.98 41 3 C34.73 3 28.46 3 22 3 C22 13.23 22 23.46 22 34 C20.68 34 19.36 34 18 34 C18 23.77 18 13.54 18 3 C12.06 3 6.12 3 0 3 C0 2.01 0 1.02 0 0 Z " fill="#000000" transform="translate(2411,650)"/>
<path d="M0 0 C6.32926829 0.35162602 6.32926829 0.35162602 8.875 2.8125 C10.93160813 6.81146026 10.93160813 6.81146026 11 9 C9.375 11.3125 9.375 11.3125 7 13 C4.19991758 12.93170531 2.58686101 12.34402197 0.1875 10.9375 C-1.78799956 7.71431651 -1.24022409 4.72347338 -1 1 C-0.67 0.67 -0.34 0.34 0 0 Z " fill="#000000" transform="translate(276,547)"/>
<path d="M0 0 C4.29 0 8.58 0 13 0 C13 0.99 13 1.98 13 3 C8.71 3 4.42 3 0 3 C0 2.01 0 1.02 0 0 Z " fill="#000000" transform="translate(2821,665)"/>
<path d="M0 0 C0.99 0 1.98 0 3 0 C3 0.66 3 1.32 3 2 C2.01 2 1.02 2 0 2 C0 1.34 0 0.68 0 0 Z " fill="#000000" transform="translate(664,298)"/>
<path d="" fill="#000000" transform="translate(0,0)"/>
<path d="" fill="#000000" transform="translate(0,0)"/>
</svg>